<mxfile host="app.diagrams.net" agent="Mozilla/5.0 (Windows NT 10.0; Win64; x64) AppleWebKit/537.36 (KHTML, like Gecko) Chrome/141.0.0.0 Safari/537.36" version="28.2.7" pages="2">
  <diagram name="Halaman-1" id="dcC4SBAxdcOdW2rNWoch">
    <mxGraphModel dx="6884" dy="3036" grid="1" gridSize="10" guides="1" tooltips="1" connect="1" arrows="1" fold="1" page="1" pageScale="1" pageWidth="827" pageHeight="1169" math="0" shadow="0">
      <root>
        <mxCell id="0" />
        <mxCell id="1" parent="0" />
        <mxCell id="Dj5zvvuKGpMR83KZicQ8-141" value="" style="edgeStyle=orthogonalEdgeStyle;rounded=0;orthogonalLoop=1;jettySize=auto;html=1;" edge="1" parent="1" source="Dj5zvvuKGpMR83KZicQ8-67" target="Dj5zvvuKGpMR83KZicQ8-140">
          <mxGeometry relative="1" as="geometry" />
        </mxCell>
        <mxCell id="Dj5zvvuKGpMR83KZicQ8-67" value="Input:&lt;div&gt;Pilih menu (1-3)&lt;/div&gt;" style="shape=parallelogram;perimeter=parallelogramPerimeter;whiteSpace=wrap;html=1;fixedSize=1;" vertex="1" parent="1">
          <mxGeometry x="2130" y="310" width="120" height="50" as="geometry" />
        </mxCell>
        <mxCell id="Dj5zvvuKGpMR83KZicQ8-68" value="" style="edgeStyle=none;orthogonalLoop=1;jettySize=auto;html=1;rounded=0;" edge="1" parent="1">
          <mxGeometry width="100" relative="1" as="geometry">
            <mxPoint x="2120" y="314" as="sourcePoint" />
            <mxPoint x="2150" y="314" as="targetPoint" />
            <Array as="points" />
          </mxGeometry>
        </mxCell>
        <mxCell id="Dj5zvvuKGpMR83KZicQ8-131" value="" style="edgeStyle=orthogonalEdgeStyle;rounded=0;orthogonalLoop=1;jettySize=auto;html=1;" edge="1" parent="1" source="Dj5zvvuKGpMR83KZicQ8-128" target="Dj5zvvuKGpMR83KZicQ8-67">
          <mxGeometry relative="1" as="geometry" />
        </mxCell>
        <mxCell id="Dj5zvvuKGpMR83KZicQ8-128" value="&lt;div&gt;Menu Login&lt;/div&gt;1. Login&lt;div&gt;2. Registrasi&lt;/div&gt;&lt;div&gt;3. Keluar&lt;/div&gt;" style="shape=parallelogram;perimeter=parallelogramPerimeter;whiteSpace=wrap;html=1;fixedSize=1;" vertex="1" parent="1">
          <mxGeometry x="2130" y="195" width="120" height="60" as="geometry" />
        </mxCell>
        <mxCell id="Dj5zvvuKGpMR83KZicQ8-139" value="" style="edgeStyle=orthogonalEdgeStyle;rounded=0;orthogonalLoop=1;jettySize=auto;html=1;" edge="1" parent="1" source="Dj5zvvuKGpMR83KZicQ8-136" target="Dj5zvvuKGpMR83KZicQ8-128">
          <mxGeometry relative="1" as="geometry" />
        </mxCell>
        <mxCell id="Dj5zvvuKGpMR83KZicQ8-136" value="menu_login" style="shape=process;whiteSpace=wrap;html=1;backgroundOutline=1;" vertex="1" parent="1">
          <mxGeometry x="2130" y="68" width="120" height="60" as="geometry" />
        </mxCell>
        <mxCell id="Dj5zvvuKGpMR83KZicQ8-140" value="end" style="ellipse;whiteSpace=wrap;html=1;" vertex="1" parent="1">
          <mxGeometry x="2150" y="425" width="80" height="45" as="geometry" />
        </mxCell>
        <mxCell id="Dj5zvvuKGpMR83KZicQ8-159" value="" style="edgeStyle=orthogonalEdgeStyle;rounded=0;orthogonalLoop=1;jettySize=auto;html=1;" edge="1" parent="1" source="Dj5zvvuKGpMR83KZicQ8-142" target="Dj5zvvuKGpMR83KZicQ8-144">
          <mxGeometry relative="1" as="geometry" />
        </mxCell>
        <mxCell id="Dj5zvvuKGpMR83KZicQ8-142" value="ulang_login" style="shape=process;whiteSpace=wrap;html=1;backgroundOutline=1;" vertex="1" parent="1">
          <mxGeometry x="1561" y="37.5" width="120" height="60" as="geometry" />
        </mxCell>
        <mxCell id="Dj5zvvuKGpMR83KZicQ8-143" value="" style="edgeStyle=orthogonalEdgeStyle;rounded=0;orthogonalLoop=1;jettySize=auto;html=1;" edge="1" parent="1" source="Dj5zvvuKGpMR83KZicQ8-144" target="Dj5zvvuKGpMR83KZicQ8-148">
          <mxGeometry relative="1" as="geometry" />
        </mxCell>
        <mxCell id="Dj5zvvuKGpMR83KZicQ8-144" value="input:&lt;div&gt;username &amp;amp; password&lt;/div&gt;" style="shape=parallelogram;perimeter=parallelogramPerimeter;whiteSpace=wrap;html=1;fixedSize=1;" vertex="1" parent="1">
          <mxGeometry x="1561" y="159.5" width="120" height="60" as="geometry" />
        </mxCell>
        <mxCell id="Dj5zvvuKGpMR83KZicQ8-145" value="" style="edgeStyle=none;orthogonalLoop=1;jettySize=auto;html=1;rounded=0;" edge="1" parent="1">
          <mxGeometry width="100" relative="1" as="geometry">
            <mxPoint x="1550" y="164.5" as="sourcePoint" />
            <mxPoint x="1580" y="164.5" as="targetPoint" />
            <Array as="points" />
          </mxGeometry>
        </mxCell>
        <mxCell id="Dj5zvvuKGpMR83KZicQ8-146" value="" style="edgeStyle=orthogonalEdgeStyle;rounded=0;orthogonalLoop=1;jettySize=auto;html=1;" edge="1" parent="1" source="Dj5zvvuKGpMR83KZicQ8-148" target="Dj5zvvuKGpMR83KZicQ8-151">
          <mxGeometry relative="1" as="geometry" />
        </mxCell>
        <mxCell id="Dj5zvvuKGpMR83KZicQ8-147" value="" style="edgeStyle=orthogonalEdgeStyle;rounded=0;orthogonalLoop=1;jettySize=auto;html=1;" edge="1" parent="1" source="Dj5zvvuKGpMR83KZicQ8-148" target="Dj5zvvuKGpMR83KZicQ8-155">
          <mxGeometry relative="1" as="geometry" />
        </mxCell>
        <mxCell id="Dj5zvvuKGpMR83KZicQ8-148" value="username&lt;div&gt;&amp;amp; password&lt;div&gt;benar?&lt;/div&gt;&lt;/div&gt;" style="rhombus;whiteSpace=wrap;html=1;" vertex="1" parent="1">
          <mxGeometry x="1571" y="279.5" width="100" height="90" as="geometry" />
        </mxCell>
        <mxCell id="Dj5zvvuKGpMR83KZicQ8-149" style="edgeStyle=orthogonalEdgeStyle;rounded=0;orthogonalLoop=1;jettySize=auto;html=1;exitX=1;exitY=1;exitDx=0;exitDy=0;" edge="1" parent="1" source="Dj5zvvuKGpMR83KZicQ8-151">
          <mxGeometry relative="1" as="geometry">
            <mxPoint x="1871" y="345.5" as="targetPoint" />
          </mxGeometry>
        </mxCell>
        <mxCell id="Dj5zvvuKGpMR83KZicQ8-150" value="" style="edgeStyle=orthogonalEdgeStyle;rounded=0;orthogonalLoop=1;jettySize=auto;html=1;entryX=1;entryY=0.5;entryDx=0;entryDy=0;" edge="1" parent="1" source="Dj5zvvuKGpMR83KZicQ8-151" target="Dj5zvvuKGpMR83KZicQ8-197">
          <mxGeometry relative="1" as="geometry">
            <mxPoint x="1921" y="324.5" as="targetPoint" />
            <Array as="points">
              <mxPoint x="1880" y="324.5" />
              <mxPoint x="1880" y="542.5" />
            </Array>
          </mxGeometry>
        </mxCell>
        <mxCell id="Dj5zvvuKGpMR83KZicQ8-151" value="output:&lt;div&gt;username /&lt;/div&gt;&lt;div&gt;password salah&lt;/div&gt;" style="shape=parallelogram;perimeter=parallelogramPerimeter;whiteSpace=wrap;html=1;fixedSize=1;" vertex="1" parent="1">
          <mxGeometry x="1741" y="294.5" width="120" height="60" as="geometry" />
        </mxCell>
        <mxCell id="Dj5zvvuKGpMR83KZicQ8-152" value="Tidak" style="text;html=1;align=center;verticalAlign=middle;resizable=0;points=[];autosize=1;strokeColor=none;fillColor=none;" vertex="1" parent="1">
          <mxGeometry x="1676" y="297.5" width="50" height="30" as="geometry" />
        </mxCell>
        <mxCell id="Dj5zvvuKGpMR83KZicQ8-153" value="" style="edgeStyle=orthogonalEdgeStyle;rounded=0;orthogonalLoop=1;jettySize=auto;html=1;" edge="1" parent="1" source="Dj5zvvuKGpMR83KZicQ8-155">
          <mxGeometry relative="1" as="geometry">
            <mxPoint x="1621" y="519.5" as="targetPoint" />
          </mxGeometry>
        </mxCell>
        <mxCell id="Dj5zvvuKGpMR83KZicQ8-154" style="edgeStyle=orthogonalEdgeStyle;rounded=0;orthogonalLoop=1;jettySize=auto;html=1;exitX=1;exitY=1;exitDx=0;exitDy=0;" edge="1" parent="1" source="Dj5zvvuKGpMR83KZicQ8-155">
          <mxGeometry relative="1" as="geometry">
            <mxPoint x="1690.9999999999995" y="463.61764705882365" as="targetPoint" />
          </mxGeometry>
        </mxCell>
        <mxCell id="Dj5zvvuKGpMR83KZicQ8-155" value="output&lt;div&gt;login berhasil&lt;/div&gt;" style="shape=parallelogram;perimeter=parallelogramPerimeter;whiteSpace=wrap;html=1;fixedSize=1;" vertex="1" parent="1">
          <mxGeometry x="1561" y="429.5" width="120" height="40" as="geometry" />
        </mxCell>
        <mxCell id="Dj5zvvuKGpMR83KZicQ8-156" value="Ya" style="text;html=1;align=center;verticalAlign=middle;resizable=0;points=[];autosize=1;strokeColor=none;fillColor=none;" vertex="1" parent="1">
          <mxGeometry x="1611" y="377.5" width="40" height="30" as="geometry" />
        </mxCell>
        <mxCell id="Dj5zvvuKGpMR83KZicQ8-178" value="" style="edgeStyle=orthogonalEdgeStyle;rounded=0;orthogonalLoop=1;jettySize=auto;html=1;" edge="1" parent="1" source="Dj5zvvuKGpMR83KZicQ8-161" target="Dj5zvvuKGpMR83KZicQ8-163">
          <mxGeometry relative="1" as="geometry" />
        </mxCell>
        <mxCell id="Dj5zvvuKGpMR83KZicQ8-161" value="register" style="shape=process;whiteSpace=wrap;html=1;backgroundOutline=1;fillColor=#FFFF99;" vertex="1" parent="1">
          <mxGeometry x="1500" y="693" width="120" height="60" as="geometry" />
        </mxCell>
        <mxCell id="Dj5zvvuKGpMR83KZicQ8-162" value="" style="edgeStyle=orthogonalEdgeStyle;rounded=0;orthogonalLoop=1;jettySize=auto;html=1;" edge="1" parent="1" source="Dj5zvvuKGpMR83KZicQ8-163" target="Dj5zvvuKGpMR83KZicQ8-167">
          <mxGeometry relative="1" as="geometry" />
        </mxCell>
        <mxCell id="Dj5zvvuKGpMR83KZicQ8-163" value="input:&lt;div&gt;username baru &amp;amp; password baru&lt;/div&gt;" style="shape=parallelogram;perimeter=parallelogramPerimeter;whiteSpace=wrap;html=1;fixedSize=1;" vertex="1" parent="1">
          <mxGeometry x="1490" y="815" width="140" height="60" as="geometry" />
        </mxCell>
        <mxCell id="Dj5zvvuKGpMR83KZicQ8-164" value="" style="edgeStyle=none;orthogonalLoop=1;jettySize=auto;html=1;rounded=0;" edge="1" parent="1">
          <mxGeometry width="100" relative="1" as="geometry">
            <mxPoint x="1480" y="819" as="sourcePoint" />
            <mxPoint x="1510" y="819" as="targetPoint" />
            <Array as="points" />
          </mxGeometry>
        </mxCell>
        <mxCell id="Dj5zvvuKGpMR83KZicQ8-165" value="" style="edgeStyle=orthogonalEdgeStyle;rounded=0;orthogonalLoop=1;jettySize=auto;html=1;" edge="1" parent="1" source="Dj5zvvuKGpMR83KZicQ8-167" target="Dj5zvvuKGpMR83KZicQ8-170">
          <mxGeometry relative="1" as="geometry" />
        </mxCell>
        <mxCell id="Dj5zvvuKGpMR83KZicQ8-166" value="" style="edgeStyle=orthogonalEdgeStyle;rounded=0;orthogonalLoop=1;jettySize=auto;html=1;" edge="1" parent="1" source="Dj5zvvuKGpMR83KZicQ8-167" target="Dj5zvvuKGpMR83KZicQ8-175">
          <mxGeometry relative="1" as="geometry" />
        </mxCell>
        <mxCell id="Dj5zvvuKGpMR83KZicQ8-167" value="username&amp;nbsp;&lt;span style=&quot;background-color: transparent; color: light-dark(rgb(0, 0, 0), rgb(255, 255, 255));&quot;&gt;baru duplikat?&lt;/span&gt;" style="rhombus;whiteSpace=wrap;html=1;" vertex="1" parent="1">
          <mxGeometry x="1500" y="935" width="120" height="90" as="geometry" />
        </mxCell>
        <mxCell id="Dj5zvvuKGpMR83KZicQ8-168" value="" style="edgeStyle=orthogonalEdgeStyle;rounded=0;orthogonalLoop=1;jettySize=auto;html=1;" edge="1" parent="1" source="Dj5zvvuKGpMR83KZicQ8-170">
          <mxGeometry relative="1" as="geometry">
            <mxPoint x="1560.0000000000005" y="1175" as="targetPoint" />
          </mxGeometry>
        </mxCell>
        <mxCell id="Dj5zvvuKGpMR83KZicQ8-169" style="edgeStyle=orthogonalEdgeStyle;rounded=0;orthogonalLoop=1;jettySize=auto;html=1;exitX=1;exitY=1;exitDx=0;exitDy=0;" edge="1" parent="1" source="Dj5zvvuKGpMR83KZicQ8-170">
          <mxGeometry relative="1" as="geometry">
            <mxPoint x="1640" y="1128.5294117647059" as="targetPoint" />
          </mxGeometry>
        </mxCell>
        <mxCell id="Dj5zvvuKGpMR83KZicQ8-170" value="output:&lt;div&gt;username sudah digunakan&lt;/div&gt;" style="shape=parallelogram;perimeter=parallelogramPerimeter;whiteSpace=wrap;html=1;fixedSize=1;" vertex="1" parent="1">
          <mxGeometry x="1490" y="1085" width="140" height="50" as="geometry" />
        </mxCell>
        <mxCell id="Dj5zvvuKGpMR83KZicQ8-172" value="Ya" style="text;html=1;align=center;verticalAlign=middle;resizable=0;points=[];autosize=1;strokeColor=none;fillColor=none;" vertex="1" parent="1">
          <mxGeometry x="1550" y="1033" width="40" height="30" as="geometry" />
        </mxCell>
        <mxCell id="Dj5zvvuKGpMR83KZicQ8-173" value="" style="edgeStyle=orthogonalEdgeStyle;rounded=0;orthogonalLoop=1;jettySize=auto;html=1;entryX=0;entryY=0.5;entryDx=0;entryDy=0;" edge="1" parent="1" source="Dj5zvvuKGpMR83KZicQ8-175" target="Dj5zvvuKGpMR83KZicQ8-198">
          <mxGeometry relative="1" as="geometry">
            <mxPoint x="1370.0000000000005" y="1055" as="targetPoint" />
            <Array as="points">
              <mxPoint x="1370" y="1198" />
            </Array>
          </mxGeometry>
        </mxCell>
        <mxCell id="Dj5zvvuKGpMR83KZicQ8-174" style="edgeStyle=orthogonalEdgeStyle;rounded=0;orthogonalLoop=1;jettySize=auto;html=1;exitX=1;exitY=1;exitDx=0;exitDy=0;" edge="1" parent="1" source="Dj5zvvuKGpMR83KZicQ8-175">
          <mxGeometry relative="1" as="geometry">
            <mxPoint x="1440" y="1001.4705882352941" as="targetPoint" />
          </mxGeometry>
        </mxCell>
        <mxCell id="Dj5zvvuKGpMR83KZicQ8-175" value="output:&lt;div&gt;akun berhasil&lt;/div&gt;&lt;div&gt;dibuat&lt;/div&gt;" style="shape=parallelogram;perimeter=parallelogramPerimeter;whiteSpace=wrap;html=1;fixedSize=1;" vertex="1" parent="1">
          <mxGeometry x="1310" y="950" width="120" height="60" as="geometry" />
        </mxCell>
        <mxCell id="Dj5zvvuKGpMR83KZicQ8-176" value="Tidak" style="text;html=1;align=center;verticalAlign=middle;resizable=0;points=[];autosize=1;strokeColor=none;fillColor=none;" vertex="1" parent="1">
          <mxGeometry x="1440" y="953" width="50" height="30" as="geometry" />
        </mxCell>
        <mxCell id="Dj5zvvuKGpMR83KZicQ8-195" value="" style="edgeStyle=orthogonalEdgeStyle;rounded=0;orthogonalLoop=1;jettySize=auto;html=1;" edge="1" parent="1" source="Dj5zvvuKGpMR83KZicQ8-181" target="Dj5zvvuKGpMR83KZicQ8-188">
          <mxGeometry relative="1" as="geometry" />
        </mxCell>
        <mxCell id="Dj5zvvuKGpMR83KZicQ8-181" value="menu_utama" style="shape=process;whiteSpace=wrap;html=1;backgroundOutline=1;" vertex="1" parent="1">
          <mxGeometry x="2131.5" y="577" width="120" height="60" as="geometry" />
        </mxCell>
        <mxCell id="Dj5zvvuKGpMR83KZicQ8-182" value="" style="edgeStyle=orthogonalEdgeStyle;rounded=0;orthogonalLoop=1;jettySize=auto;html=1;" edge="1" parent="1" source="Dj5zvvuKGpMR83KZicQ8-183" target="Dj5zvvuKGpMR83KZicQ8-184">
          <mxGeometry relative="1" as="geometry" />
        </mxCell>
        <mxCell id="Dj5zvvuKGpMR83KZicQ8-183" value="Tampilkan menu utama 1-4" style="whiteSpace=wrap;html=1;" vertex="1" parent="1">
          <mxGeometry x="2141.5" y="855" width="100" height="40" as="geometry" />
        </mxCell>
        <mxCell id="Dj5zvvuKGpMR83KZicQ8-200" value="" style="edgeStyle=orthogonalEdgeStyle;rounded=0;orthogonalLoop=1;jettySize=auto;html=1;" edge="1" parent="1" source="Dj5zvvuKGpMR83KZicQ8-184" target="Dj5zvvuKGpMR83KZicQ8-199">
          <mxGeometry relative="1" as="geometry" />
        </mxCell>
        <mxCell id="Dj5zvvuKGpMR83KZicQ8-184" value="input:&lt;div&gt;pilih menu (1-4)&lt;/div&gt;" style="shape=parallelogram;perimeter=parallelogramPerimeter;whiteSpace=wrap;html=1;fixedSize=1;" vertex="1" parent="1">
          <mxGeometry x="2131.5" y="945" width="120" height="60" as="geometry" />
        </mxCell>
        <mxCell id="Dj5zvvuKGpMR83KZicQ8-185" style="edgeStyle=orthogonalEdgeStyle;rounded=0;orthogonalLoop=1;jettySize=auto;html=1;exitX=1;exitY=1;exitDx=0;exitDy=0;" edge="1" parent="1">
          <mxGeometry relative="1" as="geometry">
            <mxPoint x="2150.5" y="949" as="targetPoint" />
            <mxPoint x="2123.5" y="949.0588235294117" as="sourcePoint" />
          </mxGeometry>
        </mxCell>
        <mxCell id="Dj5zvvuKGpMR83KZicQ8-186" value="" style="edgeStyle=orthogonalEdgeStyle;rounded=0;orthogonalLoop=1;jettySize=auto;html=1;" edge="1" parent="1" source="Dj5zvvuKGpMR83KZicQ8-188" target="Dj5zvvuKGpMR83KZicQ8-183">
          <mxGeometry relative="1" as="geometry" />
        </mxCell>
        <mxCell id="Dj5zvvuKGpMR83KZicQ8-187" value="" style="edgeStyle=orthogonalEdgeStyle;rounded=0;orthogonalLoop=1;jettySize=auto;html=1;" edge="1" parent="1" source="Dj5zvvuKGpMR83KZicQ8-188" target="Dj5zvvuKGpMR83KZicQ8-191">
          <mxGeometry relative="1" as="geometry" />
        </mxCell>
        <mxCell id="Dj5zvvuKGpMR83KZicQ8-188" value="status == admin" style="rhombus;whiteSpace=wrap;html=1;" vertex="1" parent="1">
          <mxGeometry x="2151.5" y="695" width="80" height="80" as="geometry" />
        </mxCell>
        <mxCell id="Dj5zvvuKGpMR83KZicQ8-189" value="Ya" style="text;html=1;whiteSpace=wrap;strokeColor=none;fillColor=none;align=center;verticalAlign=middle;rounded=0;" vertex="1" parent="1">
          <mxGeometry x="2171.5" y="785" width="60" height="30" as="geometry" />
        </mxCell>
        <mxCell id="Dj5zvvuKGpMR83KZicQ8-190" value="" style="edgeStyle=orthogonalEdgeStyle;rounded=0;orthogonalLoop=1;jettySize=auto;html=1;" edge="1" parent="1" source="Dj5zvvuKGpMR83KZicQ8-191" target="Dj5zvvuKGpMR83KZicQ8-192">
          <mxGeometry relative="1" as="geometry" />
        </mxCell>
        <mxCell id="Dj5zvvuKGpMR83KZicQ8-191" value="Tampilkan menu utama 1 &amp;amp; 2" style="whiteSpace=wrap;html=1;" vertex="1" parent="1">
          <mxGeometry x="1921.5" y="715" width="110" height="40" as="geometry" />
        </mxCell>
        <mxCell id="Dj5zvvuKGpMR83KZicQ8-201" style="edgeStyle=orthogonalEdgeStyle;rounded=0;orthogonalLoop=1;jettySize=auto;html=1;entryX=0;entryY=0.5;entryDx=0;entryDy=0;" edge="1" parent="1" source="Dj5zvvuKGpMR83KZicQ8-192" target="Dj5zvvuKGpMR83KZicQ8-199">
          <mxGeometry relative="1" as="geometry">
            <Array as="points">
              <mxPoint x="1976.5" y="1080" />
            </Array>
          </mxGeometry>
        </mxCell>
        <mxCell id="Dj5zvvuKGpMR83KZicQ8-192" value="input:&lt;br&gt;pilih menu" style="shape=parallelogram;perimeter=parallelogramPerimeter;whiteSpace=wrap;html=1;fixedSize=1;" vertex="1" parent="1">
          <mxGeometry x="1916.5" y="825" width="120" height="60" as="geometry" />
        </mxCell>
        <mxCell id="Dj5zvvuKGpMR83KZicQ8-193" value="Tidak" style="text;html=1;whiteSpace=wrap;strokeColor=none;fillColor=none;align=center;verticalAlign=middle;rounded=0;" vertex="1" parent="1">
          <mxGeometry x="2061.5" y="705" width="60" height="30" as="geometry" />
        </mxCell>
        <mxCell id="Dj5zvvuKGpMR83KZicQ8-194" style="edgeStyle=orthogonalEdgeStyle;rounded=0;orthogonalLoop=1;jettySize=auto;html=1;exitX=1;exitY=1;exitDx=0;exitDy=0;" edge="1" parent="1">
          <mxGeometry relative="1" as="geometry">
            <mxPoint x="1935.5" y="829" as="targetPoint" />
            <mxPoint x="1908.5" y="829.0588235294117" as="sourcePoint" />
          </mxGeometry>
        </mxCell>
        <mxCell id="Dj5zvvuKGpMR83KZicQ8-197" value="end" style="ellipse;whiteSpace=wrap;html=1;" vertex="1" parent="1">
          <mxGeometry x="1581" y="520" width="80" height="45" as="geometry" />
        </mxCell>
        <mxCell id="Dj5zvvuKGpMR83KZicQ8-198" value="end" style="ellipse;whiteSpace=wrap;html=1;" vertex="1" parent="1">
          <mxGeometry x="1520" y="1175" width="80" height="45" as="geometry" />
        </mxCell>
        <mxCell id="Dj5zvvuKGpMR83KZicQ8-199" value="end" style="ellipse;whiteSpace=wrap;html=1;" vertex="1" parent="1">
          <mxGeometry x="2151.5" y="1057" width="80" height="45" as="geometry" />
        </mxCell>
        <mxCell id="Dj5zvvuKGpMR83KZicQ8-283" value="" style="edgeStyle=orthogonalEdgeStyle;rounded=0;orthogonalLoop=1;jettySize=auto;html=1;" edge="1" parent="1" source="Dj5zvvuKGpMR83KZicQ8-202" target="Dj5zvvuKGpMR83KZicQ8-282">
          <mxGeometry relative="1" as="geometry" />
        </mxCell>
        <mxCell id="Dj5zvvuKGpMR83KZicQ8-202" value="tampil_rekomendasi" style="shape=process;whiteSpace=wrap;html=1;backgroundOutline=1;fillColor=#99FFFF;" vertex="1" parent="1">
          <mxGeometry x="1929.5" y="2220" width="159" height="60" as="geometry" />
        </mxCell>
        <mxCell id="Dj5zvvuKGpMR83KZicQ8-243" value="" style="edgeStyle=orthogonalEdgeStyle;rounded=0;orthogonalLoop=1;jettySize=auto;html=1;" edge="1" parent="1" source="Dj5zvvuKGpMR83KZicQ8-244" target="Dj5zvvuKGpMR83KZicQ8-246">
          <mxGeometry relative="1" as="geometry" />
        </mxCell>
        <mxCell id="Dj5zvvuKGpMR83KZicQ8-244" value="Tampilkan jenis senjata" style="whiteSpace=wrap;html=1;" vertex="1" parent="1">
          <mxGeometry x="2151" y="2492" width="120" height="50" as="geometry" />
        </mxCell>
        <mxCell id="Dj5zvvuKGpMR83KZicQ8-310" value="" style="edgeStyle=orthogonalEdgeStyle;rounded=0;orthogonalLoop=1;jettySize=auto;html=1;" edge="1" parent="1" source="Dj5zvvuKGpMR83KZicQ8-246" target="Dj5zvvuKGpMR83KZicQ8-296">
          <mxGeometry relative="1" as="geometry" />
        </mxCell>
        <mxCell id="Dj5zvvuKGpMR83KZicQ8-246" value="input:&lt;div&gt;pilih jenis senjata&lt;/div&gt;" style="shape=parallelogram;perimeter=parallelogramPerimeter;whiteSpace=wrap;html=1;fixedSize=1;" vertex="1" parent="1">
          <mxGeometry x="2151" y="2597" width="120" height="60" as="geometry" />
        </mxCell>
        <mxCell id="Dj5zvvuKGpMR83KZicQ8-247" value="" style="edgeStyle=orthogonalEdgeStyle;rounded=0;orthogonalLoop=1;jettySize=auto;html=1;" edge="1" parent="1" source="Dj5zvvuKGpMR83KZicQ8-249">
          <mxGeometry relative="1" as="geometry">
            <mxPoint x="2009" y="2872" as="targetPoint" />
          </mxGeometry>
        </mxCell>
        <mxCell id="Dj5zvvuKGpMR83KZicQ8-249" value="pilih jenis ==&lt;div&gt;jumlah jenis&lt;/div&gt;&lt;div&gt;senjata&lt;/div&gt;" style="rhombus;whiteSpace=wrap;html=1;" vertex="1" parent="1">
          <mxGeometry x="1949" y="2712" width="120" height="100" as="geometry" />
        </mxCell>
        <mxCell id="Dj5zvvuKGpMR83KZicQ8-251" value="Ya" style="text;html=1;whiteSpace=wrap;strokeColor=none;fillColor=none;align=center;verticalAlign=middle;rounded=0;" vertex="1" parent="1">
          <mxGeometry x="1993" y="2822" width="60" height="30" as="geometry" />
        </mxCell>
        <mxCell id="Dj5zvvuKGpMR83KZicQ8-253" value="" style="edgeStyle=orthogonalEdgeStyle;rounded=0;orthogonalLoop=1;jettySize=auto;html=1;" edge="1" parent="1" target="Dj5zvvuKGpMR83KZicQ8-272">
          <mxGeometry relative="1" as="geometry">
            <mxPoint x="1951" y="2762" as="sourcePoint" />
          </mxGeometry>
        </mxCell>
        <mxCell id="Dj5zvvuKGpMR83KZicQ8-255" value="Tidak" style="text;html=1;whiteSpace=wrap;strokeColor=none;fillColor=none;align=center;verticalAlign=middle;rounded=0;" vertex="1" parent="1">
          <mxGeometry x="2087.5" y="2727" width="60" height="30" as="geometry" />
        </mxCell>
        <mxCell id="Dj5zvvuKGpMR83KZicQ8-269" value="" style="edgeStyle=orthogonalEdgeStyle;rounded=0;orthogonalLoop=1;jettySize=auto;html=1;" edge="1" parent="1" source="Dj5zvvuKGpMR83KZicQ8-270" target="Dj5zvvuKGpMR83KZicQ8-244">
          <mxGeometry relative="1" as="geometry" />
        </mxCell>
        <mxCell id="Dj5zvvuKGpMR83KZicQ8-270" value="menu jenis senjata" style="ellipse;whiteSpace=wrap;html=1;aspect=fixed;" vertex="1" parent="1">
          <mxGeometry x="2331" y="2487" width="60" height="60" as="geometry" />
        </mxCell>
        <mxCell id="Dj5zvvuKGpMR83KZicQ8-315" value="r" style="edgeStyle=orthogonalEdgeStyle;rounded=0;orthogonalLoop=1;jettySize=auto;html=1;" edge="1" parent="1">
          <mxGeometry x="-0.0034" y="20" relative="1" as="geometry">
            <mxPoint x="1931" y="2250" as="targetPoint" />
            <mxPoint x="1772" y="2758" as="sourcePoint" />
            <Array as="points">
              <mxPoint x="1741" y="2758" />
              <mxPoint x="1741" y="2250" />
            </Array>
            <mxPoint as="offset" />
          </mxGeometry>
        </mxCell>
        <mxCell id="Dj5zvvuKGpMR83KZicQ8-272" value="Output:&lt;div&gt;pilihan tidak valid,&lt;/div&gt;&lt;div&gt;ulangi&lt;/div&gt;" style="shape=parallelogram;perimeter=parallelogramPerimeter;whiteSpace=wrap;html=1;fixedSize=1;" vertex="1" parent="1">
          <mxGeometry x="1761" y="2732" width="120" height="60" as="geometry" />
        </mxCell>
        <mxCell id="Dj5zvvuKGpMR83KZicQ8-273" value="Tidak" style="text;html=1;whiteSpace=wrap;strokeColor=none;fillColor=none;align=center;verticalAlign=middle;rounded=0;" vertex="1" parent="1">
          <mxGeometry x="1884" y="2736" width="60" height="30" as="geometry" />
        </mxCell>
        <mxCell id="Dj5zvvuKGpMR83KZicQ8-275" style="edgeStyle=orthogonalEdgeStyle;rounded=0;orthogonalLoop=1;jettySize=auto;html=1;exitX=1;exitY=1;exitDx=0;exitDy=0;" edge="1" parent="1">
          <mxGeometry relative="1" as="geometry">
            <mxPoint x="2169" y="2602" as="targetPoint" />
            <mxPoint x="2142" y="2602.0588235294117" as="sourcePoint" />
          </mxGeometry>
        </mxCell>
        <mxCell id="Dj5zvvuKGpMR83KZicQ8-284" value="" style="edgeStyle=orthogonalEdgeStyle;rounded=0;orthogonalLoop=1;jettySize=auto;html=1;" edge="1" parent="1" source="Dj5zvvuKGpMR83KZicQ8-282" target="Dj5zvvuKGpMR83KZicQ8-244">
          <mxGeometry relative="1" as="geometry" />
        </mxCell>
        <mxCell id="Dj5zvvuKGpMR83KZicQ8-287" value="" style="edgeStyle=orthogonalEdgeStyle;rounded=0;orthogonalLoop=1;jettySize=auto;html=1;" edge="1" parent="1" source="Dj5zvvuKGpMR83KZicQ8-282" target="Dj5zvvuKGpMR83KZicQ8-286">
          <mxGeometry relative="1" as="geometry" />
        </mxCell>
        <mxCell id="Dj5zvvuKGpMR83KZicQ8-282" value="input == angka" style="rhombus;whiteSpace=wrap;html=1;" vertex="1" parent="1">
          <mxGeometry x="2171.5" y="2349" width="80" height="80" as="geometry" />
        </mxCell>
        <mxCell id="Dj5zvvuKGpMR83KZicQ8-285" value="Ya" style="text;html=1;whiteSpace=wrap;strokeColor=none;fillColor=none;align=center;verticalAlign=middle;rounded=0;" vertex="1" parent="1">
          <mxGeometry x="2197" y="2444" width="60" height="30" as="geometry" />
        </mxCell>
        <mxCell id="Dj5zvvuKGpMR83KZicQ8-288" style="edgeStyle=orthogonalEdgeStyle;rounded=0;orthogonalLoop=1;jettySize=auto;html=1;exitX=1;exitY=1;exitDx=0;exitDy=0;" edge="1" parent="1" source="Dj5zvvuKGpMR83KZicQ8-286">
          <mxGeometry relative="1" as="geometry">
            <mxPoint x="2091" y="2410" as="targetPoint" />
          </mxGeometry>
        </mxCell>
        <mxCell id="Dj5zvvuKGpMR83KZicQ8-528" style="edgeStyle=orthogonalEdgeStyle;rounded=0;orthogonalLoop=1;jettySize=auto;html=1;exitX=0;exitY=0.5;exitDx=0;exitDy=0;" edge="1" parent="1" source="Dj5zvvuKGpMR83KZicQ8-286">
          <mxGeometry relative="1" as="geometry">
            <mxPoint x="1881" y="2252" as="targetPoint" />
          </mxGeometry>
        </mxCell>
        <mxCell id="Dj5zvvuKGpMR83KZicQ8-286" value="output:&lt;div&gt;input harus&amp;nbsp;&lt;/div&gt;&lt;div&gt;angka&lt;/div&gt;" style="shape=parallelogram;perimeter=parallelogramPerimeter;whiteSpace=wrap;html=1;fixedSize=1;" vertex="1" parent="1">
          <mxGeometry x="1951" y="2359" width="120" height="60" as="geometry" />
        </mxCell>
        <mxCell id="Dj5zvvuKGpMR83KZicQ8-289" value="Tidak" style="text;html=1;whiteSpace=wrap;strokeColor=none;fillColor=none;align=center;verticalAlign=middle;rounded=0;" vertex="1" parent="1">
          <mxGeometry x="2107" y="2364" width="60" height="30" as="geometry" />
        </mxCell>
        <mxCell id="Dj5zvvuKGpMR83KZicQ8-295" value="" style="edgeStyle=orthogonalEdgeStyle;rounded=0;orthogonalLoop=1;jettySize=auto;html=1;" edge="1" parent="1" source="Dj5zvvuKGpMR83KZicQ8-296" target="Dj5zvvuKGpMR83KZicQ8-298">
          <mxGeometry relative="1" as="geometry" />
        </mxCell>
        <mxCell id="Dj5zvvuKGpMR83KZicQ8-312" value="" style="edgeStyle=orthogonalEdgeStyle;rounded=0;orthogonalLoop=1;jettySize=auto;html=1;" edge="1" parent="1" source="Dj5zvvuKGpMR83KZicQ8-296" target="Dj5zvvuKGpMR83KZicQ8-249">
          <mxGeometry relative="1" as="geometry" />
        </mxCell>
        <mxCell id="Dj5zvvuKGpMR83KZicQ8-296" value="pilih jenis &amp;lt;&lt;div&gt;jumlah jenis senjata&lt;/div&gt;" style="rhombus;whiteSpace=wrap;html=1;" vertex="1" parent="1">
          <mxGeometry x="2161.5" y="2712" width="100" height="100" as="geometry" />
        </mxCell>
        <mxCell id="Dj5zvvuKGpMR83KZicQ8-297" value="" style="edgeStyle=orthogonalEdgeStyle;rounded=0;orthogonalLoop=1;jettySize=auto;html=1;" edge="1" parent="1" source="Dj5zvvuKGpMR83KZicQ8-298" target="Dj5zvvuKGpMR83KZicQ8-301">
          <mxGeometry relative="1" as="geometry" />
        </mxCell>
        <mxCell id="Dj5zvvuKGpMR83KZicQ8-298" value="Tampilkan rekomendasi senjata sesuai jenis yang dipilih" style="whiteSpace=wrap;html=1;" vertex="1" parent="1">
          <mxGeometry x="2151.5" y="2882" width="120" height="70" as="geometry" />
        </mxCell>
        <mxCell id="Dj5zvvuKGpMR83KZicQ8-299" value="Ya" style="text;html=1;whiteSpace=wrap;strokeColor=none;fillColor=none;align=center;verticalAlign=middle;rounded=0;" vertex="1" parent="1">
          <mxGeometry x="2191.5" y="2822" width="60" height="30" as="geometry" />
        </mxCell>
        <mxCell id="Dj5zvvuKGpMR83KZicQ8-300" value="" style="edgeStyle=orthogonalEdgeStyle;rounded=0;orthogonalLoop=1;jettySize=auto;html=1;" edge="1" parent="1" source="Dj5zvvuKGpMR83KZicQ8-301" target="Dj5zvvuKGpMR83KZicQ8-307">
          <mxGeometry relative="1" as="geometry" />
        </mxCell>
        <mxCell id="Dj5zvvuKGpMR83KZicQ8-301" value="input:&lt;div&gt;pilih jenis&amp;nbsp;&lt;/div&gt;&lt;div&gt;&lt;span style=&quot;background-color: transparent; color: light-dark(rgb(0, 0, 0), rgb(255, 255, 255));&quot;&gt;senjata&lt;/span&gt;&lt;/div&gt;" style="shape=parallelogram;perimeter=parallelogramPerimeter;whiteSpace=wrap;html=1;fixedSize=1;" vertex="1" parent="1">
          <mxGeometry x="2151.5" y="3022" width="120" height="60" as="geometry" />
        </mxCell>
        <mxCell id="Dj5zvvuKGpMR83KZicQ8-302" style="edgeStyle=orthogonalEdgeStyle;rounded=0;orthogonalLoop=1;jettySize=auto;html=1;exitX=1;exitY=1;exitDx=0;exitDy=0;" edge="1" parent="1">
          <mxGeometry relative="1" as="geometry">
            <mxPoint x="2171.5" y="3027" as="targetPoint" />
            <mxPoint x="2144.5" y="3027.0588235294117" as="sourcePoint" />
          </mxGeometry>
        </mxCell>
        <mxCell id="Dj5zvvuKGpMR83KZicQ8-303" style="edgeStyle=orthogonalEdgeStyle;rounded=0;orthogonalLoop=1;jettySize=auto;html=1;exitX=1;exitY=1;exitDx=0;exitDy=0;" edge="1" parent="1" source="Dj5zvvuKGpMR83KZicQ8-305">
          <mxGeometry relative="1" as="geometry">
            <mxPoint x="2281.5" y="3313.176470588235" as="targetPoint" />
          </mxGeometry>
        </mxCell>
        <mxCell id="Dj5zvvuKGpMR83KZicQ8-316" style="edgeStyle=orthogonalEdgeStyle;rounded=0;orthogonalLoop=1;jettySize=auto;html=1;" edge="1" parent="1">
          <mxGeometry relative="1" as="geometry">
            <mxPoint x="1741" y="2760" as="targetPoint" />
            <mxPoint x="2161.5" y="3288" as="sourcePoint" />
            <Array as="points">
              <mxPoint x="2162" y="3294" />
              <mxPoint x="1741" y="3294" />
            </Array>
          </mxGeometry>
        </mxCell>
        <mxCell id="Dj5zvvuKGpMR83KZicQ8-305" value="output:&lt;div&gt;Tampilkan&amp;nbsp;&lt;/div&gt;&lt;div&gt;statistik&lt;/div&gt;" style="shape=parallelogram;perimeter=parallelogramPerimeter;whiteSpace=wrap;html=1;fixedSize=1;" vertex="1" parent="1">
          <mxGeometry x="2151.5" y="3262" width="120" height="60" as="geometry" />
        </mxCell>
        <mxCell id="Dj5zvvuKGpMR83KZicQ8-306" value="" style="edgeStyle=orthogonalEdgeStyle;rounded=0;orthogonalLoop=1;jettySize=auto;html=1;" edge="1" parent="1" source="Dj5zvvuKGpMR83KZicQ8-307" target="Dj5zvvuKGpMR83KZicQ8-305">
          <mxGeometry relative="1" as="geometry" />
        </mxCell>
        <mxCell id="Dj5zvvuKGpMR83KZicQ8-307" value="input:&lt;div&gt;pilih model&amp;nbsp;&lt;/div&gt;&lt;div&gt;senjata&lt;/div&gt;" style="shape=parallelogram;perimeter=parallelogramPerimeter;whiteSpace=wrap;html=1;fixedSize=1;" vertex="1" parent="1">
          <mxGeometry x="2151.5" y="3142" width="120" height="60" as="geometry" />
        </mxCell>
        <mxCell id="Dj5zvvuKGpMR83KZicQ8-308" style="edgeStyle=orthogonalEdgeStyle;rounded=0;orthogonalLoop=1;jettySize=auto;html=1;exitX=1;exitY=1;exitDx=0;exitDy=0;" edge="1" parent="1">
          <mxGeometry relative="1" as="geometry">
            <mxPoint x="2171.5" y="3146" as="targetPoint" />
            <mxPoint x="2144.5" y="3146.0588235294117" as="sourcePoint" />
          </mxGeometry>
        </mxCell>
        <mxCell id="Dj5zvvuKGpMR83KZicQ8-368" value="" style="edgeStyle=orthogonalEdgeStyle;rounded=0;orthogonalLoop=1;jettySize=auto;html=1;" edge="1" parent="1" source="Dj5zvvuKGpMR83KZicQ8-329" target="Dj5zvvuKGpMR83KZicQ8-331">
          <mxGeometry relative="1" as="geometry" />
        </mxCell>
        <mxCell id="Dj5zvvuKGpMR83KZicQ8-329" value="update_rekomendasi" style="shape=process;whiteSpace=wrap;html=1;backgroundOutline=1;fillColor=#99FFCC;" vertex="1" parent="1">
          <mxGeometry x="996" y="30" width="150" height="60" as="geometry" />
        </mxCell>
        <mxCell id="Dj5zvvuKGpMR83KZicQ8-330" value="" style="edgeStyle=orthogonalEdgeStyle;rounded=0;orthogonalLoop=1;jettySize=auto;html=1;" edge="1" parent="1" source="Dj5zvvuKGpMR83KZicQ8-331" target="Dj5zvvuKGpMR83KZicQ8-333">
          <mxGeometry relative="1" as="geometry" />
        </mxCell>
        <mxCell id="Dj5zvvuKGpMR83KZicQ8-331" value="Tampilkan menu update rekomendasi" style="whiteSpace=wrap;html=1;" vertex="1" parent="1">
          <mxGeometry x="1011" y="164" width="120" height="50" as="geometry" />
        </mxCell>
        <mxCell id="Dj5zvvuKGpMR83KZicQ8-332" value="" style="edgeStyle=orthogonalEdgeStyle;rounded=0;orthogonalLoop=1;jettySize=auto;html=1;" edge="1" parent="1" target="Dj5zvvuKGpMR83KZicQ8-337">
          <mxGeometry relative="1" as="geometry">
            <mxPoint x="1071" y="464" as="sourcePoint" />
          </mxGeometry>
        </mxCell>
        <mxCell id="Dj5zvvuKGpMR83KZicQ8-370" value="" style="edgeStyle=orthogonalEdgeStyle;rounded=0;orthogonalLoop=1;jettySize=auto;html=1;" edge="1" parent="1" source="Dj5zvvuKGpMR83KZicQ8-333" target="Dj5zvvuKGpMR83KZicQ8-369">
          <mxGeometry relative="1" as="geometry" />
        </mxCell>
        <mxCell id="Dj5zvvuKGpMR83KZicQ8-333" value="input:&lt;div&gt;pilih opsi (1-3)&lt;/div&gt;" style="shape=parallelogram;perimeter=parallelogramPerimeter;whiteSpace=wrap;html=1;fixedSize=1;" vertex="1" parent="1">
          <mxGeometry x="1011" y="264" width="120" height="60" as="geometry" />
        </mxCell>
        <mxCell id="Dj5zvvuKGpMR83KZicQ8-334" style="edgeStyle=orthogonalEdgeStyle;rounded=0;orthogonalLoop=1;jettySize=auto;html=1;exitX=1;exitY=1;exitDx=0;exitDy=0;" edge="1" parent="1">
          <mxGeometry relative="1" as="geometry">
            <mxPoint x="1030" y="268" as="targetPoint" />
            <mxPoint x="1003" y="268.0588235294117" as="sourcePoint" />
          </mxGeometry>
        </mxCell>
        <mxCell id="Dj5zvvuKGpMR83KZicQ8-335" value="" style="edgeStyle=orthogonalEdgeStyle;rounded=0;orthogonalLoop=1;jettySize=auto;html=1;" edge="1" parent="1" target="Dj5zvvuKGpMR83KZicQ8-339">
          <mxGeometry relative="1" as="geometry">
            <mxPoint x="1071" y="597" as="sourcePoint" />
          </mxGeometry>
        </mxCell>
        <mxCell id="Dj5zvvuKGpMR83KZicQ8-336" value="" style="edgeStyle=orthogonalEdgeStyle;rounded=0;orthogonalLoop=1;jettySize=auto;html=1;" edge="1" parent="1" source="Dj5zvvuKGpMR83KZicQ8-337" target="Dj5zvvuKGpMR83KZicQ8-351">
          <mxGeometry relative="1" as="geometry" />
        </mxCell>
        <mxCell id="Dj5zvvuKGpMR83KZicQ8-337" value="pilih == 1" style="rhombus;whiteSpace=wrap;html=1;" vertex="1" parent="1">
          <mxGeometry x="1031" y="517" width="80" height="80" as="geometry" />
        </mxCell>
        <mxCell id="Dj5zvvuKGpMR83KZicQ8-338" value="" style="edgeStyle=orthogonalEdgeStyle;rounded=0;orthogonalLoop=1;jettySize=auto;html=1;" edge="1" parent="1" source="Dj5zvvuKGpMR83KZicQ8-339" target="Dj5zvvuKGpMR83KZicQ8-341">
          <mxGeometry relative="1" as="geometry" />
        </mxCell>
        <mxCell id="Dj5zvvuKGpMR83KZicQ8-339" value="Tampilkan&amp;nbsp;&lt;div&gt;jenis senjata&lt;/div&gt;" style="whiteSpace=wrap;html=1;" vertex="1" parent="1">
          <mxGeometry x="1011" y="644" width="120" height="50" as="geometry" />
        </mxCell>
        <mxCell id="Dj5zvvuKGpMR83KZicQ8-340" value="" style="edgeStyle=orthogonalEdgeStyle;rounded=0;orthogonalLoop=1;jettySize=auto;html=1;" edge="1" parent="1" source="Dj5zvvuKGpMR83KZicQ8-341" target="Dj5zvvuKGpMR83KZicQ8-344">
          <mxGeometry relative="1" as="geometry" />
        </mxCell>
        <mxCell id="Dj5zvvuKGpMR83KZicQ8-341" value="input:&lt;div&gt;pilih jenis senjata&lt;/div&gt;" style="shape=parallelogram;perimeter=parallelogramPerimeter;whiteSpace=wrap;html=1;fixedSize=1;" vertex="1" parent="1">
          <mxGeometry x="1011" y="744" width="120" height="60" as="geometry" />
        </mxCell>
        <mxCell id="Dj5zvvuKGpMR83KZicQ8-342" style="edgeStyle=orthogonalEdgeStyle;rounded=0;orthogonalLoop=1;jettySize=auto;html=1;exitX=1;exitY=1;exitDx=0;exitDy=0;" edge="1" parent="1">
          <mxGeometry relative="1" as="geometry">
            <mxPoint x="1030" y="748" as="targetPoint" />
            <mxPoint x="1003" y="748.0588235294117" as="sourcePoint" />
          </mxGeometry>
        </mxCell>
        <mxCell id="Dj5zvvuKGpMR83KZicQ8-343" value="" style="edgeStyle=orthogonalEdgeStyle;rounded=0;orthogonalLoop=1;jettySize=auto;html=1;" edge="1" parent="1" source="Dj5zvvuKGpMR83KZicQ8-344" target="Dj5zvvuKGpMR83KZicQ8-347">
          <mxGeometry relative="1" as="geometry" />
        </mxCell>
        <mxCell id="Dj5zvvuKGpMR83KZicQ8-344" value="input:&lt;div&gt;masukkan nama senjata&lt;/div&gt;" style="shape=parallelogram;perimeter=parallelogramPerimeter;whiteSpace=wrap;html=1;fixedSize=1;" vertex="1" parent="1">
          <mxGeometry x="1011" y="854" width="120" height="60" as="geometry" />
        </mxCell>
        <mxCell id="Dj5zvvuKGpMR83KZicQ8-345" style="edgeStyle=orthogonalEdgeStyle;rounded=0;orthogonalLoop=1;jettySize=auto;html=1;exitX=1;exitY=1;exitDx=0;exitDy=0;" edge="1" parent="1">
          <mxGeometry relative="1" as="geometry">
            <mxPoint x="1030" y="860" as="targetPoint" />
            <mxPoint x="1003" y="860.0588235294117" as="sourcePoint" />
          </mxGeometry>
        </mxCell>
        <mxCell id="Dj5zvvuKGpMR83KZicQ8-346" value="Ya" style="text;html=1;whiteSpace=wrap;strokeColor=none;fillColor=none;align=center;verticalAlign=middle;rounded=0;" vertex="1" parent="1">
          <mxGeometry x="1054" y="604" width="60" height="30" as="geometry" />
        </mxCell>
        <mxCell id="Dj5zvvuKGpMR83KZicQ8-347" value="menu kelola" style="ellipse;whiteSpace=wrap;html=1;aspect=fixed;" vertex="1" parent="1">
          <mxGeometry x="1041" y="954" width="60" height="60" as="geometry" />
        </mxCell>
        <mxCell id="Dj5zvvuKGpMR83KZicQ8-348" value="" style="edgeStyle=orthogonalEdgeStyle;rounded=0;orthogonalLoop=1;jettySize=auto;html=1;" edge="1" parent="1" source="Dj5zvvuKGpMR83KZicQ8-349" target="Dj5zvvuKGpMR83KZicQ8-331">
          <mxGeometry relative="1" as="geometry" />
        </mxCell>
        <mxCell id="Dj5zvvuKGpMR83KZicQ8-349" value="menu kelola" style="ellipse;whiteSpace=wrap;html=1;aspect=fixed;" vertex="1" parent="1">
          <mxGeometry x="1181" y="159" width="60" height="60" as="geometry" />
        </mxCell>
        <mxCell id="Dj5zvvuKGpMR83KZicQ8-378" value="" style="edgeStyle=orthogonalEdgeStyle;rounded=0;orthogonalLoop=1;jettySize=auto;html=1;" edge="1" parent="1" source="Dj5zvvuKGpMR83KZicQ8-351" target="Dj5zvvuKGpMR83KZicQ8-377">
          <mxGeometry relative="1" as="geometry" />
        </mxCell>
        <mxCell id="Dj5zvvuKGpMR83KZicQ8-351" value="pilih == 2" style="rhombus;whiteSpace=wrap;html=1;" vertex="1" parent="1">
          <mxGeometry x="841" y="517" width="80" height="80" as="geometry" />
        </mxCell>
        <mxCell id="Dj5zvvuKGpMR83KZicQ8-352" value="Tidak" style="text;html=1;whiteSpace=wrap;strokeColor=none;fillColor=none;align=center;verticalAlign=middle;rounded=0;" vertex="1" parent="1">
          <mxGeometry x="951" y="528" width="60" height="30" as="geometry" />
        </mxCell>
        <mxCell id="Dj5zvvuKGpMR83KZicQ8-353" value="" style="edgeStyle=orthogonalEdgeStyle;rounded=0;orthogonalLoop=1;jettySize=auto;html=1;" edge="1" parent="1" target="Dj5zvvuKGpMR83KZicQ8-355">
          <mxGeometry relative="1" as="geometry">
            <mxPoint x="881" y="597" as="sourcePoint" />
          </mxGeometry>
        </mxCell>
        <mxCell id="Dj5zvvuKGpMR83KZicQ8-354" value="" style="edgeStyle=orthogonalEdgeStyle;rounded=0;orthogonalLoop=1;jettySize=auto;html=1;" edge="1" parent="1" source="Dj5zvvuKGpMR83KZicQ8-355" target="Dj5zvvuKGpMR83KZicQ8-357">
          <mxGeometry relative="1" as="geometry" />
        </mxCell>
        <mxCell id="Dj5zvvuKGpMR83KZicQ8-355" value="Tampilkan&amp;nbsp;&lt;div&gt;jenis senjata&lt;/div&gt;" style="whiteSpace=wrap;html=1;" vertex="1" parent="1">
          <mxGeometry x="821" y="644" width="120" height="50" as="geometry" />
        </mxCell>
        <mxCell id="Dj5zvvuKGpMR83KZicQ8-356" value="" style="edgeStyle=orthogonalEdgeStyle;rounded=0;orthogonalLoop=1;jettySize=auto;html=1;" edge="1" parent="1" source="Dj5zvvuKGpMR83KZicQ8-357" target="Dj5zvvuKGpMR83KZicQ8-360">
          <mxGeometry relative="1" as="geometry" />
        </mxCell>
        <mxCell id="Dj5zvvuKGpMR83KZicQ8-357" value="input:&lt;div&gt;pilih jenis senjata&lt;/div&gt;" style="shape=parallelogram;perimeter=parallelogramPerimeter;whiteSpace=wrap;html=1;fixedSize=1;" vertex="1" parent="1">
          <mxGeometry x="821" y="744" width="120" height="60" as="geometry" />
        </mxCell>
        <mxCell id="Dj5zvvuKGpMR83KZicQ8-358" style="edgeStyle=orthogonalEdgeStyle;rounded=0;orthogonalLoop=1;jettySize=auto;html=1;exitX=1;exitY=1;exitDx=0;exitDy=0;" edge="1" parent="1">
          <mxGeometry relative="1" as="geometry">
            <mxPoint x="840" y="748" as="targetPoint" />
            <mxPoint x="813" y="748.0588235294117" as="sourcePoint" />
          </mxGeometry>
        </mxCell>
        <mxCell id="Dj5zvvuKGpMR83KZicQ8-359" value="" style="edgeStyle=orthogonalEdgeStyle;rounded=0;orthogonalLoop=1;jettySize=auto;html=1;" edge="1" parent="1" source="Dj5zvvuKGpMR83KZicQ8-360" target="Dj5zvvuKGpMR83KZicQ8-363">
          <mxGeometry relative="1" as="geometry" />
        </mxCell>
        <mxCell id="Dj5zvvuKGpMR83KZicQ8-360" value="input:&lt;div&gt;Hapus&amp;nbsp;&lt;span style=&quot;background-color: transparent; color: light-dark(rgb(0, 0, 0), rgb(255, 255, 255));&quot;&gt;nama&lt;/span&gt;&lt;/div&gt;&lt;div&gt;&lt;span style=&quot;background-color: transparent; color: light-dark(rgb(0, 0, 0), rgb(255, 255, 255));&quot;&gt;senjata&lt;/span&gt;&lt;/div&gt;" style="shape=parallelogram;perimeter=parallelogramPerimeter;whiteSpace=wrap;html=1;fixedSize=1;" vertex="1" parent="1">
          <mxGeometry x="821" y="854" width="120" height="60" as="geometry" />
        </mxCell>
        <mxCell id="Dj5zvvuKGpMR83KZicQ8-361" style="edgeStyle=orthogonalEdgeStyle;rounded=0;orthogonalLoop=1;jettySize=auto;html=1;exitX=1;exitY=1;exitDx=0;exitDy=0;" edge="1" parent="1">
          <mxGeometry relative="1" as="geometry">
            <mxPoint x="840" y="860" as="targetPoint" />
            <mxPoint x="813" y="860.0588235294117" as="sourcePoint" />
          </mxGeometry>
        </mxCell>
        <mxCell id="Dj5zvvuKGpMR83KZicQ8-362" value="Ya" style="text;html=1;whiteSpace=wrap;strokeColor=none;fillColor=none;align=center;verticalAlign=middle;rounded=0;" vertex="1" parent="1">
          <mxGeometry x="864" y="604" width="60" height="30" as="geometry" />
        </mxCell>
        <mxCell id="Dj5zvvuKGpMR83KZicQ8-363" value="menu kelola" style="ellipse;whiteSpace=wrap;html=1;aspect=fixed;" vertex="1" parent="1">
          <mxGeometry x="851" y="954" width="60" height="60" as="geometry" />
        </mxCell>
        <mxCell id="Dj5zvvuKGpMR83KZicQ8-364" style="edgeStyle=orthogonalEdgeStyle;rounded=0;orthogonalLoop=1;jettySize=auto;html=1;exitX=1;exitY=1;exitDx=0;exitDy=0;" edge="1" parent="1" source="Dj5zvvuKGpMR83KZicQ8-366">
          <mxGeometry relative="1" as="geometry">
            <mxPoint x="601" y="579.7058823529412" as="targetPoint" />
          </mxGeometry>
        </mxCell>
        <mxCell id="Dj5zvvuKGpMR83KZicQ8-365" value="" style="edgeStyle=orthogonalEdgeStyle;rounded=0;orthogonalLoop=1;jettySize=auto;html=1;" edge="1" parent="1" source="Dj5zvvuKGpMR83KZicQ8-366" target="Dj5zvvuKGpMR83KZicQ8-367">
          <mxGeometry relative="1" as="geometry" />
        </mxCell>
        <mxCell id="Dj5zvvuKGpMR83KZicQ8-366" value="output:&lt;div&gt;pilihan tidak&lt;/div&gt;&lt;div&gt;valid&lt;/div&gt;" style="shape=parallelogram;perimeter=parallelogramPerimeter;whiteSpace=wrap;html=1;fixedSize=1;" vertex="1" parent="1">
          <mxGeometry x="471" y="528" width="120" height="60" as="geometry" />
        </mxCell>
        <mxCell id="Dj5zvvuKGpMR83KZicQ8-367" value="menu kelola" style="ellipse;whiteSpace=wrap;html=1;aspect=fixed;" vertex="1" parent="1">
          <mxGeometry x="501" y="630" width="60" height="60" as="geometry" />
        </mxCell>
        <mxCell id="Dj5zvvuKGpMR83KZicQ8-373" value="" style="edgeStyle=orthogonalEdgeStyle;rounded=0;orthogonalLoop=1;jettySize=auto;html=1;" edge="1" parent="1" source="Dj5zvvuKGpMR83KZicQ8-369" target="Dj5zvvuKGpMR83KZicQ8-372">
          <mxGeometry relative="1" as="geometry" />
        </mxCell>
        <mxCell id="Dj5zvvuKGpMR83KZicQ8-369" value="input == angka" style="rhombus;whiteSpace=wrap;html=1;" vertex="1" parent="1">
          <mxGeometry x="1031" y="384" width="80" height="80" as="geometry" />
        </mxCell>
        <mxCell id="Dj5zvvuKGpMR83KZicQ8-371" value="Ya" style="text;html=1;whiteSpace=wrap;strokeColor=none;fillColor=none;align=center;verticalAlign=middle;rounded=0;" vertex="1" parent="1">
          <mxGeometry x="1053" y="470" width="60" height="30" as="geometry" />
        </mxCell>
        <mxCell id="Dj5zvvuKGpMR83KZicQ8-374" style="edgeStyle=orthogonalEdgeStyle;rounded=0;orthogonalLoop=1;jettySize=auto;html=1;exitX=1;exitY=1;exitDx=0;exitDy=0;" edge="1" parent="1" source="Dj5zvvuKGpMR83KZicQ8-372">
          <mxGeometry relative="1" as="geometry">
            <mxPoint x="981" y="445.71428571428567" as="targetPoint" />
          </mxGeometry>
        </mxCell>
        <mxCell id="Dj5zvvuKGpMR83KZicQ8-376" style="edgeStyle=orthogonalEdgeStyle;rounded=0;orthogonalLoop=1;jettySize=auto;html=1;entryX=0;entryY=0.5;entryDx=0;entryDy=0;" edge="1" parent="1" source="Dj5zvvuKGpMR83KZicQ8-372" target="Dj5zvvuKGpMR83KZicQ8-331">
          <mxGeometry relative="1" as="geometry">
            <Array as="points">
              <mxPoint x="911" y="189" />
            </Array>
          </mxGeometry>
        </mxCell>
        <mxCell id="Dj5zvvuKGpMR83KZicQ8-372" value="ouput:&lt;div&gt;input harus&amp;nbsp;&lt;/div&gt;&lt;div&gt;angka&lt;/div&gt;" style="shape=parallelogram;perimeter=parallelogramPerimeter;whiteSpace=wrap;html=1;fixedSize=1;" vertex="1" parent="1">
          <mxGeometry x="851" y="394" width="120" height="60" as="geometry" />
        </mxCell>
        <mxCell id="Dj5zvvuKGpMR83KZicQ8-379" value="" style="edgeStyle=orthogonalEdgeStyle;rounded=0;orthogonalLoop=1;jettySize=auto;html=1;" edge="1" parent="1" source="Dj5zvvuKGpMR83KZicQ8-377" target="Dj5zvvuKGpMR83KZicQ8-366">
          <mxGeometry relative="1" as="geometry" />
        </mxCell>
        <mxCell id="Dj5zvvuKGpMR83KZicQ8-383" style="edgeStyle=orthogonalEdgeStyle;rounded=0;orthogonalLoop=1;jettySize=auto;html=1;entryX=0;entryY=0.5;entryDx=0;entryDy=0;" edge="1" parent="1" source="Dj5zvvuKGpMR83KZicQ8-377" target="Dj5zvvuKGpMR83KZicQ8-382">
          <mxGeometry relative="1" as="geometry">
            <Array as="points">
              <mxPoint x="721" y="1079" />
            </Array>
          </mxGeometry>
        </mxCell>
        <mxCell id="Dj5zvvuKGpMR83KZicQ8-377" value="pilih == 3" style="rhombus;whiteSpace=wrap;html=1;" vertex="1" parent="1">
          <mxGeometry x="681" y="517" width="80" height="80" as="geometry" />
        </mxCell>
        <mxCell id="Dj5zvvuKGpMR83KZicQ8-380" value="Tidak" style="text;html=1;whiteSpace=wrap;strokeColor=none;fillColor=none;align=center;verticalAlign=middle;rounded=0;" vertex="1" parent="1">
          <mxGeometry x="771" y="528" width="60" height="30" as="geometry" />
        </mxCell>
        <mxCell id="Dj5zvvuKGpMR83KZicQ8-381" value="Tidak" style="text;html=1;whiteSpace=wrap;strokeColor=none;fillColor=none;align=center;verticalAlign=middle;rounded=0;" vertex="1" parent="1">
          <mxGeometry x="611" y="528" width="60" height="30" as="geometry" />
        </mxCell>
        <mxCell id="Dj5zvvuKGpMR83KZicQ8-382" value="end" style="ellipse;whiteSpace=wrap;html=1;" vertex="1" parent="1">
          <mxGeometry x="1031" y="1057" width="80" height="45" as="geometry" />
        </mxCell>
        <mxCell id="Dj5zvvuKGpMR83KZicQ8-385" value="end" style="ellipse;whiteSpace=wrap;html=1;" vertex="1" parent="1">
          <mxGeometry x="1969" y="2876" width="80" height="45" as="geometry" />
        </mxCell>
        <mxCell id="Dj5zvvuKGpMR83KZicQ8-386" value="update_statistik" style="shape=process;whiteSpace=wrap;html=1;backgroundOutline=1;" vertex="1" parent="1">
          <mxGeometry x="2175.75" y="1414" width="125" height="60" as="geometry" />
        </mxCell>
        <mxCell id="Dj5zvvuKGpMR83KZicQ8-387" value="" style="edgeStyle=orthogonalEdgeStyle;rounded=0;orthogonalLoop=1;jettySize=auto;html=1;" edge="1" parent="1" target="Dj5zvvuKGpMR83KZicQ8-389">
          <mxGeometry relative="1" as="geometry">
            <mxPoint x="2237.75" y="1474" as="sourcePoint" />
          </mxGeometry>
        </mxCell>
        <mxCell id="Dj5zvvuKGpMR83KZicQ8-388" value="" style="edgeStyle=orthogonalEdgeStyle;rounded=0;orthogonalLoop=1;jettySize=auto;html=1;" edge="1" parent="1" source="Dj5zvvuKGpMR83KZicQ8-389" target="Dj5zvvuKGpMR83KZicQ8-391">
          <mxGeometry relative="1" as="geometry" />
        </mxCell>
        <mxCell id="Dj5zvvuKGpMR83KZicQ8-389" value="Tampilkan menu&lt;div&gt;jenis senjata&lt;/div&gt;" style="whiteSpace=wrap;html=1;" vertex="1" parent="1">
          <mxGeometry x="2177.75" y="1529" width="120" height="60" as="geometry" />
        </mxCell>
        <mxCell id="Dj5zvvuKGpMR83KZicQ8-390" value="" style="edgeStyle=orthogonalEdgeStyle;rounded=0;orthogonalLoop=1;jettySize=auto;html=1;" edge="1" parent="1" source="Dj5zvvuKGpMR83KZicQ8-391" target="Dj5zvvuKGpMR83KZicQ8-394">
          <mxGeometry relative="1" as="geometry" />
        </mxCell>
        <mxCell id="Dj5zvvuKGpMR83KZicQ8-391" value="input:&lt;div&gt;pilih jenis senjata&lt;/div&gt;" style="shape=parallelogram;perimeter=parallelogramPerimeter;whiteSpace=wrap;html=1;fixedSize=1;" vertex="1" parent="1">
          <mxGeometry x="2177.75" y="1669" width="120" height="40" as="geometry" />
        </mxCell>
        <mxCell id="Dj5zvvuKGpMR83KZicQ8-392" style="edgeStyle=orthogonalEdgeStyle;rounded=0;orthogonalLoop=1;jettySize=auto;html=1;exitX=1;exitY=1;exitDx=0;exitDy=0;" edge="1" parent="1">
          <mxGeometry relative="1" as="geometry">
            <mxPoint x="2196.75" y="1672" as="targetPoint" />
            <mxPoint x="2169.75" y="1672.4705882352941" as="sourcePoint" />
          </mxGeometry>
        </mxCell>
        <mxCell id="Dj5zvvuKGpMR83KZicQ8-393" value="" style="edgeStyle=orthogonalEdgeStyle;rounded=0;orthogonalLoop=1;jettySize=auto;html=1;" edge="1" parent="1" source="Dj5zvvuKGpMR83KZicQ8-394" target="Dj5zvvuKGpMR83KZicQ8-396">
          <mxGeometry relative="1" as="geometry" />
        </mxCell>
        <mxCell id="Dj5zvvuKGpMR83KZicQ8-394" value="Tampilkan&lt;div&gt;Model senjata&lt;/div&gt;" style="whiteSpace=wrap;html=1;" vertex="1" parent="1">
          <mxGeometry x="2177.75" y="1769" width="120" height="50" as="geometry" />
        </mxCell>
        <mxCell id="Dj5zvvuKGpMR83KZicQ8-395" value="" style="edgeStyle=orthogonalEdgeStyle;rounded=0;orthogonalLoop=1;jettySize=auto;html=1;" edge="1" parent="1" source="Dj5zvvuKGpMR83KZicQ8-396" target="Dj5zvvuKGpMR83KZicQ8-399">
          <mxGeometry relative="1" as="geometry" />
        </mxCell>
        <mxCell id="Dj5zvvuKGpMR83KZicQ8-396" value="input:&lt;div&gt;Pilih model&amp;nbsp;&lt;/div&gt;&lt;div&gt;senjata&lt;/div&gt;" style="shape=parallelogram;perimeter=parallelogramPerimeter;whiteSpace=wrap;html=1;fixedSize=1;" vertex="1" parent="1">
          <mxGeometry x="2177.75" y="1869" width="120" height="50" as="geometry" />
        </mxCell>
        <mxCell id="Dj5zvvuKGpMR83KZicQ8-397" style="edgeStyle=orthogonalEdgeStyle;rounded=0;orthogonalLoop=1;jettySize=auto;html=1;exitX=1;exitY=1;exitDx=0;exitDy=0;" edge="1" parent="1">
          <mxGeometry relative="1" as="geometry">
            <mxPoint x="2195.75" y="1872" as="targetPoint" />
            <mxPoint x="2168.75" y="1872.4705882352941" as="sourcePoint" />
          </mxGeometry>
        </mxCell>
        <mxCell id="Dj5zvvuKGpMR83KZicQ8-404" value="" style="edgeStyle=orthogonalEdgeStyle;rounded=0;orthogonalLoop=1;jettySize=auto;html=1;" edge="1" parent="1" source="Dj5zvvuKGpMR83KZicQ8-399" target="Dj5zvvuKGpMR83KZicQ8-402">
          <mxGeometry relative="1" as="geometry" />
        </mxCell>
        <mxCell id="Dj5zvvuKGpMR83KZicQ8-399" value="update statistik&lt;div&gt;model senjata&lt;/div&gt;" style="whiteSpace=wrap;html=1;" vertex="1" parent="1">
          <mxGeometry x="2177.75" y="1979" width="120" height="45" as="geometry" />
        </mxCell>
        <mxCell id="Dj5zvvuKGpMR83KZicQ8-402" value="end" style="ellipse;whiteSpace=wrap;html=1;" vertex="1" parent="1">
          <mxGeometry x="2198.75" y="2062" width="80" height="45" as="geometry" />
        </mxCell>
        <mxCell id="Dj5zvvuKGpMR83KZicQ8-414" value="" style="edgeStyle=orthogonalEdgeStyle;rounded=0;orthogonalLoop=1;jettySize=auto;html=1;" edge="1" parent="1" source="Dj5zvvuKGpMR83KZicQ8-405" target="Dj5zvvuKGpMR83KZicQ8-407">
          <mxGeometry relative="1" as="geometry" />
        </mxCell>
        <mxCell id="Dj5zvvuKGpMR83KZicQ8-405" value="tambah_model" style="shape=process;whiteSpace=wrap;html=1;backgroundOutline=1;" vertex="1" parent="1">
          <mxGeometry x="1915.75" y="1414" width="125" height="60" as="geometry" />
        </mxCell>
        <mxCell id="Dj5zvvuKGpMR83KZicQ8-406" value="" style="edgeStyle=orthogonalEdgeStyle;rounded=0;orthogonalLoop=1;jettySize=auto;html=1;" edge="1" parent="1" source="Dj5zvvuKGpMR83KZicQ8-407" target="Dj5zvvuKGpMR83KZicQ8-409">
          <mxGeometry relative="1" as="geometry" />
        </mxCell>
        <mxCell id="Dj5zvvuKGpMR83KZicQ8-407" value="Tampilkan menu&lt;div&gt;jenis senjata&lt;/div&gt;" style="whiteSpace=wrap;html=1;" vertex="1" parent="1">
          <mxGeometry x="1917.75" y="1527" width="120" height="60" as="geometry" />
        </mxCell>
        <mxCell id="Dj5zvvuKGpMR83KZicQ8-408" value="" style="edgeStyle=orthogonalEdgeStyle;rounded=0;orthogonalLoop=1;jettySize=auto;html=1;" edge="1" parent="1" source="Dj5zvvuKGpMR83KZicQ8-409" target="Dj5zvvuKGpMR83KZicQ8-413">
          <mxGeometry relative="1" as="geometry" />
        </mxCell>
        <mxCell id="Dj5zvvuKGpMR83KZicQ8-409" value="input:&lt;div&gt;pilih jenis senjata&lt;/div&gt;" style="shape=parallelogram;perimeter=parallelogramPerimeter;whiteSpace=wrap;html=1;fixedSize=1;" vertex="1" parent="1">
          <mxGeometry x="1917.75" y="1667" width="120" height="40" as="geometry" />
        </mxCell>
        <mxCell id="Dj5zvvuKGpMR83KZicQ8-410" style="edgeStyle=orthogonalEdgeStyle;rounded=0;orthogonalLoop=1;jettySize=auto;html=1;exitX=1;exitY=1;exitDx=0;exitDy=0;" edge="1" parent="1">
          <mxGeometry relative="1" as="geometry">
            <mxPoint x="1936.75" y="1669" as="targetPoint" />
            <mxPoint x="1909.75" y="1669.4705882352941" as="sourcePoint" />
          </mxGeometry>
        </mxCell>
        <mxCell id="Dj5zvvuKGpMR83KZicQ8-412" value="" style="edgeStyle=orthogonalEdgeStyle;rounded=0;orthogonalLoop=1;jettySize=auto;html=1;" edge="1" parent="1" source="Dj5zvvuKGpMR83KZicQ8-413">
          <mxGeometry relative="1" as="geometry">
            <mxPoint x="1977.75" y="1887" as="targetPoint" />
          </mxGeometry>
        </mxCell>
        <mxCell id="Dj5zvvuKGpMR83KZicQ8-413" value="Tambahkan&lt;div&gt;nama senjata baru &amp;amp;&lt;/div&gt;&lt;div&gt;statistiknya&lt;/div&gt;" style="rounded=0;whiteSpace=wrap;html=1;" vertex="1" parent="1">
          <mxGeometry x="1917.75" y="1767" width="120" height="60" as="geometry" />
        </mxCell>
        <mxCell id="Dj5zvvuKGpMR83KZicQ8-415" value="end" style="ellipse;whiteSpace=wrap;html=1;" vertex="1" parent="1">
          <mxGeometry x="1937.75" y="1886" width="80" height="45" as="geometry" />
        </mxCell>
        <mxCell id="Dj5zvvuKGpMR83KZicQ8-425" value="" style="edgeStyle=orthogonalEdgeStyle;rounded=0;orthogonalLoop=1;jettySize=auto;html=1;" edge="1" parent="1" source="Dj5zvvuKGpMR83KZicQ8-416" target="Dj5zvvuKGpMR83KZicQ8-418">
          <mxGeometry relative="1" as="geometry" />
        </mxCell>
        <mxCell id="Dj5zvvuKGpMR83KZicQ8-416" value="hapus_model" style="shape=process;whiteSpace=wrap;html=1;backgroundOutline=1;" vertex="1" parent="1">
          <mxGeometry x="1673.25" y="1410" width="125" height="60" as="geometry" />
        </mxCell>
        <mxCell id="Dj5zvvuKGpMR83KZicQ8-417" value="" style="edgeStyle=orthogonalEdgeStyle;rounded=0;orthogonalLoop=1;jettySize=auto;html=1;" edge="1" parent="1" source="Dj5zvvuKGpMR83KZicQ8-418" target="Dj5zvvuKGpMR83KZicQ8-420">
          <mxGeometry relative="1" as="geometry" />
        </mxCell>
        <mxCell id="Dj5zvvuKGpMR83KZicQ8-418" value="Tampilkan menu&lt;div&gt;jenis senjata&lt;/div&gt;" style="whiteSpace=wrap;html=1;" vertex="1" parent="1">
          <mxGeometry x="1675.75" y="1520" width="120" height="60" as="geometry" />
        </mxCell>
        <mxCell id="Dj5zvvuKGpMR83KZicQ8-419" value="" style="edgeStyle=orthogonalEdgeStyle;rounded=0;orthogonalLoop=1;jettySize=auto;html=1;" edge="1" parent="1" source="Dj5zvvuKGpMR83KZicQ8-420" target="Dj5zvvuKGpMR83KZicQ8-423">
          <mxGeometry relative="1" as="geometry" />
        </mxCell>
        <mxCell id="Dj5zvvuKGpMR83KZicQ8-420" value="input:&lt;div&gt;pilih jenis senjata&lt;/div&gt;" style="shape=parallelogram;perimeter=parallelogramPerimeter;whiteSpace=wrap;html=1;fixedSize=1;" vertex="1" parent="1">
          <mxGeometry x="1676.75" y="1660" width="120" height="40" as="geometry" />
        </mxCell>
        <mxCell id="Dj5zvvuKGpMR83KZicQ8-421" style="edgeStyle=orthogonalEdgeStyle;rounded=0;orthogonalLoop=1;jettySize=auto;html=1;exitX=1;exitY=1;exitDx=0;exitDy=0;" edge="1" parent="1">
          <mxGeometry relative="1" as="geometry">
            <mxPoint x="1695.75" y="1662" as="targetPoint" />
            <mxPoint x="1668.75" y="1662.4705882352941" as="sourcePoint" />
          </mxGeometry>
        </mxCell>
        <mxCell id="Dj5zvvuKGpMR83KZicQ8-422" value="" style="edgeStyle=orthogonalEdgeStyle;rounded=0;orthogonalLoop=1;jettySize=auto;html=1;" edge="1" parent="1" source="Dj5zvvuKGpMR83KZicQ8-423">
          <mxGeometry relative="1" as="geometry">
            <mxPoint x="1736.75" y="1880" as="targetPoint" />
          </mxGeometry>
        </mxCell>
        <mxCell id="Dj5zvvuKGpMR83KZicQ8-423" value="Hapus&lt;br&gt;&lt;div&gt;nama senjata baru &amp;amp;&lt;/div&gt;&lt;div&gt;statistiknya&lt;/div&gt;" style="rounded=0;whiteSpace=wrap;html=1;" vertex="1" parent="1">
          <mxGeometry x="1676.75" y="1760" width="120" height="60" as="geometry" />
        </mxCell>
        <mxCell id="Dj5zvvuKGpMR83KZicQ8-426" value="end" style="ellipse;whiteSpace=wrap;html=1;" vertex="1" parent="1">
          <mxGeometry x="1696.75" y="1880" width="80" height="45" as="geometry" />
        </mxCell>
        <mxCell id="Dj5zvvuKGpMR83KZicQ8-429" value="" style="edgeStyle=orthogonalEdgeStyle;rounded=0;orthogonalLoop=1;jettySize=auto;html=1;" edge="1" parent="1" source="Dj5zvvuKGpMR83KZicQ8-427" target="Dj5zvvuKGpMR83KZicQ8-428">
          <mxGeometry relative="1" as="geometry" />
        </mxCell>
        <mxCell id="Dj5zvvuKGpMR83KZicQ8-427" value="kelola_model_&lt;div&gt;statistik&lt;/div&gt;" style="shape=process;whiteSpace=wrap;html=1;backgroundOutline=1;fillColor=#99FF99;" vertex="1" parent="1">
          <mxGeometry x="1418.75" y="1410" width="125" height="60" as="geometry" />
        </mxCell>
        <mxCell id="Dj5zvvuKGpMR83KZicQ8-431" style="edgeStyle=orthogonalEdgeStyle;rounded=0;orthogonalLoop=1;jettySize=auto;html=1;exitX=1;exitY=1;exitDx=0;exitDy=0;" edge="1" parent="1" source="Dj5zvvuKGpMR83KZicQ8-428">
          <mxGeometry relative="1" as="geometry">
            <mxPoint x="1558.75" y="1584" as="targetPoint" />
          </mxGeometry>
        </mxCell>
        <mxCell id="Dj5zvvuKGpMR83KZicQ8-433" value="" style="edgeStyle=orthogonalEdgeStyle;rounded=0;orthogonalLoop=1;jettySize=auto;html=1;" edge="1" parent="1" source="Dj5zvvuKGpMR83KZicQ8-428" target="Dj5zvvuKGpMR83KZicQ8-432">
          <mxGeometry relative="1" as="geometry" />
        </mxCell>
        <mxCell id="Dj5zvvuKGpMR83KZicQ8-428" value="output:&lt;div&gt;1. tambah model&lt;/div&gt;&lt;div&gt;2. hapus model&lt;/div&gt;&lt;div&gt;3. update statistik&lt;/div&gt;" style="shape=parallelogram;perimeter=parallelogramPerimeter;whiteSpace=wrap;html=1;fixedSize=1;" vertex="1" parent="1">
          <mxGeometry x="1415" y="1530" width="132.5" height="62" as="geometry" />
        </mxCell>
        <mxCell id="Dj5zvvuKGpMR83KZicQ8-436" value="" style="edgeStyle=orthogonalEdgeStyle;rounded=0;orthogonalLoop=1;jettySize=auto;html=1;" edge="1" parent="1" source="Dj5zvvuKGpMR83KZicQ8-432" target="Dj5zvvuKGpMR83KZicQ8-435">
          <mxGeometry relative="1" as="geometry" />
        </mxCell>
        <mxCell id="Dj5zvvuKGpMR83KZicQ8-432" value="input:&lt;div&gt;pilih opsi&lt;/div&gt;" style="shape=parallelogram;perimeter=parallelogramPerimeter;whiteSpace=wrap;html=1;fixedSize=1;" vertex="1" parent="1">
          <mxGeometry x="1421.25" y="1654" width="120" height="48" as="geometry" />
        </mxCell>
        <mxCell id="Dj5zvvuKGpMR83KZicQ8-434" style="edgeStyle=orthogonalEdgeStyle;rounded=0;orthogonalLoop=1;jettySize=auto;html=1;exitX=1;exitY=1;exitDx=0;exitDy=0;" edge="1" parent="1">
          <mxGeometry relative="1" as="geometry">
            <mxPoint x="1440.75" y="1657" as="targetPoint" />
            <mxPoint x="1413.75" y="1657.4705882352941" as="sourcePoint" />
          </mxGeometry>
        </mxCell>
        <mxCell id="Dj5zvvuKGpMR83KZicQ8-438" value="" style="edgeStyle=orthogonalEdgeStyle;rounded=0;orthogonalLoop=1;jettySize=auto;html=1;" edge="1" parent="1" source="Dj5zvvuKGpMR83KZicQ8-435" target="Dj5zvvuKGpMR83KZicQ8-437">
          <mxGeometry relative="1" as="geometry" />
        </mxCell>
        <mxCell id="Dj5zvvuKGpMR83KZicQ8-444" value="" style="edgeStyle=orthogonalEdgeStyle;rounded=0;orthogonalLoop=1;jettySize=auto;html=1;" edge="1" parent="1" source="Dj5zvvuKGpMR83KZicQ8-435" target="Dj5zvvuKGpMR83KZicQ8-443">
          <mxGeometry relative="1" as="geometry" />
        </mxCell>
        <mxCell id="Dj5zvvuKGpMR83KZicQ8-435" value="pilih == 1" style="rhombus;whiteSpace=wrap;html=1;" vertex="1" parent="1">
          <mxGeometry x="1441.25" y="1766" width="80" height="80" as="geometry" />
        </mxCell>
        <mxCell id="Dj5zvvuKGpMR83KZicQ8-440" value="" style="edgeStyle=orthogonalEdgeStyle;rounded=0;orthogonalLoop=1;jettySize=auto;html=1;" edge="1" parent="1" source="Dj5zvvuKGpMR83KZicQ8-437" target="Dj5zvvuKGpMR83KZicQ8-439">
          <mxGeometry relative="1" as="geometry" />
        </mxCell>
        <mxCell id="Dj5zvvuKGpMR83KZicQ8-448" value="" style="edgeStyle=orthogonalEdgeStyle;rounded=0;orthogonalLoop=1;jettySize=auto;html=1;" edge="1" parent="1" source="Dj5zvvuKGpMR83KZicQ8-437" target="Dj5zvvuKGpMR83KZicQ8-446">
          <mxGeometry relative="1" as="geometry" />
        </mxCell>
        <mxCell id="Dj5zvvuKGpMR83KZicQ8-437" value="pilih == 2" style="rhombus;whiteSpace=wrap;html=1;" vertex="1" parent="1">
          <mxGeometry x="1281.25" y="1766" width="80" height="80" as="geometry" />
        </mxCell>
        <mxCell id="Dj5zvvuKGpMR83KZicQ8-442" value="" style="edgeStyle=orthogonalEdgeStyle;rounded=0;orthogonalLoop=1;jettySize=auto;html=1;" edge="1" parent="1" source="Dj5zvvuKGpMR83KZicQ8-439" target="Dj5zvvuKGpMR83KZicQ8-441">
          <mxGeometry relative="1" as="geometry" />
        </mxCell>
        <mxCell id="Dj5zvvuKGpMR83KZicQ8-449" value="" style="edgeStyle=orthogonalEdgeStyle;rounded=0;orthogonalLoop=1;jettySize=auto;html=1;" edge="1" parent="1" source="Dj5zvvuKGpMR83KZicQ8-439" target="Dj5zvvuKGpMR83KZicQ8-447">
          <mxGeometry relative="1" as="geometry" />
        </mxCell>
        <mxCell id="Dj5zvvuKGpMR83KZicQ8-439" value="pilih == 3" style="rhombus;whiteSpace=wrap;html=1;" vertex="1" parent="1">
          <mxGeometry x="1121.25" y="1766" width="80" height="80" as="geometry" />
        </mxCell>
        <mxCell id="Dj5zvvuKGpMR83KZicQ8-458" value="" style="edgeStyle=orthogonalEdgeStyle;rounded=0;orthogonalLoop=1;jettySize=auto;html=1;" edge="1" parent="1" source="Dj5zvvuKGpMR83KZicQ8-441" target="Dj5zvvuKGpMR83KZicQ8-457">
          <mxGeometry relative="1" as="geometry">
            <Array as="points">
              <mxPoint x="1001.75" y="2002" />
            </Array>
          </mxGeometry>
        </mxCell>
        <mxCell id="Dj5zvvuKGpMR83KZicQ8-461" value="" style="edgeStyle=orthogonalEdgeStyle;rounded=0;orthogonalLoop=1;jettySize=auto;html=1;" edge="1" parent="1" source="Dj5zvvuKGpMR83KZicQ8-441" target="Dj5zvvuKGpMR83KZicQ8-460">
          <mxGeometry relative="1" as="geometry" />
        </mxCell>
        <mxCell id="Dj5zvvuKGpMR83KZicQ8-441" value="pilih == 4" style="rhombus;whiteSpace=wrap;html=1;" vertex="1" parent="1">
          <mxGeometry x="961.25" y="1766" width="80" height="80" as="geometry" />
        </mxCell>
        <mxCell id="Dj5zvvuKGpMR83KZicQ8-443" value="tambah_model" style="shape=process;whiteSpace=wrap;html=1;backgroundOutline=1;" vertex="1" parent="1">
          <mxGeometry x="1421.25" y="1894" width="120" height="46" as="geometry" />
        </mxCell>
        <mxCell id="Dj5zvvuKGpMR83KZicQ8-446" value="hapus_model" style="shape=process;whiteSpace=wrap;html=1;backgroundOutline=1;" vertex="1" parent="1">
          <mxGeometry x="1261.25" y="1894" width="120" height="46" as="geometry" />
        </mxCell>
        <mxCell id="Dj5zvvuKGpMR83KZicQ8-447" value="update_statistik" style="shape=process;whiteSpace=wrap;html=1;backgroundOutline=1;" vertex="1" parent="1">
          <mxGeometry x="1101.25" y="1894" width="120" height="46" as="geometry" />
        </mxCell>
        <mxCell id="Dj5zvvuKGpMR83KZicQ8-450" value="Tidak" style="text;html=1;whiteSpace=wrap;strokeColor=none;fillColor=none;align=center;verticalAlign=middle;rounded=0;" vertex="1" parent="1">
          <mxGeometry x="1378.75" y="1782" width="60" height="30" as="geometry" />
        </mxCell>
        <mxCell id="Dj5zvvuKGpMR83KZicQ8-452" value="&lt;span style=&quot;color: rgb(0, 0, 0); font-family: Helvetica; font-size: 12px; font-style: normal; font-variant-ligatures: normal; font-variant-caps: normal; font-weight: 400; letter-spacing: normal; orphans: 2; text-align: center; text-indent: 0px; text-transform: none; widows: 2; word-spacing: 0px; -webkit-text-stroke-width: 0px; white-space: normal; background-color: rgb(236, 236, 236); text-decoration-thickness: initial; text-decoration-style: initial; text-decoration-color: initial; display: inline !important; float: none;&quot;&gt;Tidak&lt;/span&gt;" style="text;whiteSpace=wrap;html=1;" vertex="1" parent="1">
          <mxGeometry x="1228.75" y="1782" width="60" height="40" as="geometry" />
        </mxCell>
        <mxCell id="Dj5zvvuKGpMR83KZicQ8-453" value="Tidak" style="text;html=1;whiteSpace=wrap;strokeColor=none;fillColor=none;align=center;verticalAlign=middle;rounded=0;" vertex="1" parent="1">
          <mxGeometry x="1058.75" y="1779" width="60" height="30" as="geometry" />
        </mxCell>
        <mxCell id="Dj5zvvuKGpMR83KZicQ8-454" value="Ya" style="text;html=1;whiteSpace=wrap;strokeColor=none;fillColor=none;align=center;verticalAlign=middle;rounded=0;" vertex="1" parent="1">
          <mxGeometry x="1464.75" y="1846" width="60" height="30" as="geometry" />
        </mxCell>
        <mxCell id="Dj5zvvuKGpMR83KZicQ8-455" value="Ya" style="text;html=1;whiteSpace=wrap;strokeColor=none;fillColor=none;align=center;verticalAlign=middle;rounded=0;" vertex="1" parent="1">
          <mxGeometry x="1308.75" y="1842" width="60" height="30" as="geometry" />
        </mxCell>
        <mxCell id="Dj5zvvuKGpMR83KZicQ8-456" value="Ya" style="text;html=1;whiteSpace=wrap;strokeColor=none;fillColor=none;align=center;verticalAlign=middle;rounded=0;" vertex="1" parent="1">
          <mxGeometry x="1148.75" y="1842" width="60" height="30" as="geometry" />
        </mxCell>
        <mxCell id="Dj5zvvuKGpMR83KZicQ8-457" value="end" style="ellipse;whiteSpace=wrap;html=1;" vertex="1" parent="1">
          <mxGeometry x="1441.25" y="1982" width="80" height="40" as="geometry" />
        </mxCell>
        <mxCell id="Dj5zvvuKGpMR83KZicQ8-459" value="Ya" style="text;html=1;whiteSpace=wrap;strokeColor=none;fillColor=none;align=center;verticalAlign=middle;rounded=0;" vertex="1" parent="1">
          <mxGeometry x="981.25" y="1880" width="60" height="30" as="geometry" />
        </mxCell>
        <mxCell id="Dj5zvvuKGpMR83KZicQ8-463" style="edgeStyle=orthogonalEdgeStyle;rounded=0;orthogonalLoop=1;jettySize=auto;html=1;exitX=1;exitY=1;exitDx=0;exitDy=0;" edge="1" parent="1" source="Dj5zvvuKGpMR83KZicQ8-460">
          <mxGeometry relative="1" as="geometry">
            <mxPoint x="1068.75" y="1580.6666666666667" as="targetPoint" />
          </mxGeometry>
        </mxCell>
        <mxCell id="Dj5zvvuKGpMR83KZicQ8-464" style="edgeStyle=orthogonalEdgeStyle;rounded=0;orthogonalLoop=1;jettySize=auto;html=1;" edge="1" parent="1" source="Dj5zvvuKGpMR83KZicQ8-460" target="Dj5zvvuKGpMR83KZicQ8-428">
          <mxGeometry relative="1" as="geometry">
            <Array as="points">
              <mxPoint x="1328.75" y="1559" />
              <mxPoint x="1328.75" y="1559" />
            </Array>
          </mxGeometry>
        </mxCell>
        <mxCell id="Dj5zvvuKGpMR83KZicQ8-460" value="output:&lt;div&gt;pilihan tidak&amp;nbsp;&lt;/div&gt;&lt;div&gt;valid&lt;/div&gt;" style="shape=parallelogram;perimeter=parallelogramPerimeter;whiteSpace=wrap;html=1;fixedSize=1;" vertex="1" parent="1">
          <mxGeometry x="941.25" y="1529" width="120" height="60" as="geometry" />
        </mxCell>
        <mxCell id="Dj5zvvuKGpMR83KZicQ8-467" value="" style="edgeStyle=orthogonalEdgeStyle;rounded=0;orthogonalLoop=1;jettySize=auto;html=1;" edge="1" parent="1" source="Dj5zvvuKGpMR83KZicQ8-465" target="Dj5zvvuKGpMR83KZicQ8-466">
          <mxGeometry relative="1" as="geometry" />
        </mxCell>
        <mxCell id="Dj5zvvuKGpMR83KZicQ8-465" value="utama" style="shape=process;whiteSpace=wrap;html=1;backgroundOutline=1;" vertex="1" parent="1">
          <mxGeometry x="1278" y="2365" width="150" height="60" as="geometry" />
        </mxCell>
        <mxCell id="Dj5zvvuKGpMR83KZicQ8-471" value="" style="edgeStyle=orthogonalEdgeStyle;rounded=0;orthogonalLoop=1;jettySize=auto;html=1;" edge="1" parent="1" source="Dj5zvvuKGpMR83KZicQ8-466" target="Dj5zvvuKGpMR83KZicQ8-470">
          <mxGeometry relative="1" as="geometry" />
        </mxCell>
        <mxCell id="Dj5zvvuKGpMR83KZicQ8-466" value="pilih = menu_login" style="whiteSpace=wrap;html=1;" vertex="1" parent="1">
          <mxGeometry x="1293" y="2479.5" width="120" height="60" as="geometry" />
        </mxCell>
        <mxCell id="Dj5zvvuKGpMR83KZicQ8-469" value="" style="edgeStyle=orthogonalEdgeStyle;rounded=0;orthogonalLoop=1;jettySize=auto;html=1;" edge="1" parent="1" source="Dj5zvvuKGpMR83KZicQ8-468" target="Dj5zvvuKGpMR83KZicQ8-465">
          <mxGeometry relative="1" as="geometry" />
        </mxCell>
        <mxCell id="Dj5zvvuKGpMR83KZicQ8-468" value="start" style="ellipse;whiteSpace=wrap;html=1;" vertex="1" parent="1">
          <mxGeometry x="1293" y="2252" width="120" height="50" as="geometry" />
        </mxCell>
        <mxCell id="Dj5zvvuKGpMR83KZicQ8-473" value="" style="edgeStyle=orthogonalEdgeStyle;rounded=0;orthogonalLoop=1;jettySize=auto;html=1;" edge="1" parent="1" source="Dj5zvvuKGpMR83KZicQ8-470" target="Dj5zvvuKGpMR83KZicQ8-472">
          <mxGeometry relative="1" as="geometry" />
        </mxCell>
        <mxCell id="Dj5zvvuKGpMR83KZicQ8-515" value="" style="edgeStyle=orthogonalEdgeStyle;rounded=0;orthogonalLoop=1;jettySize=auto;html=1;" edge="1" parent="1" source="Dj5zvvuKGpMR83KZicQ8-470" target="Dj5zvvuKGpMR83KZicQ8-514">
          <mxGeometry relative="1" as="geometry" />
        </mxCell>
        <mxCell id="Dj5zvvuKGpMR83KZicQ8-470" value="pilih == 1" style="rhombus;whiteSpace=wrap;html=1;" vertex="1" parent="1">
          <mxGeometry x="1313" y="2602" width="80" height="80" as="geometry" />
        </mxCell>
        <mxCell id="Dj5zvvuKGpMR83KZicQ8-475" value="" style="edgeStyle=orthogonalEdgeStyle;rounded=0;orthogonalLoop=1;jettySize=auto;html=1;" edge="1" parent="1" source="Dj5zvvuKGpMR83KZicQ8-472" target="Dj5zvvuKGpMR83KZicQ8-474">
          <mxGeometry relative="1" as="geometry" />
        </mxCell>
        <mxCell id="Dj5zvvuKGpMR83KZicQ8-472" value="status = ulang_login" style="whiteSpace=wrap;html=1;" vertex="1" parent="1">
          <mxGeometry x="1293" y="2732" width="120" height="50" as="geometry" />
        </mxCell>
        <mxCell id="Dj5zvvuKGpMR83KZicQ8-477" value="" style="edgeStyle=orthogonalEdgeStyle;rounded=0;orthogonalLoop=1;jettySize=auto;html=1;" edge="1" parent="1" source="Dj5zvvuKGpMR83KZicQ8-474" target="Dj5zvvuKGpMR83KZicQ8-476">
          <mxGeometry relative="1" as="geometry" />
        </mxCell>
        <mxCell id="Dj5zvvuKGpMR83KZicQ8-474" value="menu =&amp;nbsp;&lt;div&gt;menu_utama(status)&lt;/div&gt;" style="whiteSpace=wrap;html=1;" vertex="1" parent="1">
          <mxGeometry x="1293" y="2834" width="120" height="48" as="geometry" />
        </mxCell>
        <mxCell id="Dj5zvvuKGpMR83KZicQ8-479" value="" style="edgeStyle=orthogonalEdgeStyle;rounded=0;orthogonalLoop=1;jettySize=auto;html=1;" edge="1" parent="1" source="Dj5zvvuKGpMR83KZicQ8-476" target="Dj5zvvuKGpMR83KZicQ8-478">
          <mxGeometry relative="1" as="geometry" />
        </mxCell>
        <mxCell id="Dj5zvvuKGpMR83KZicQ8-483" value="" style="edgeStyle=orthogonalEdgeStyle;rounded=0;orthogonalLoop=1;jettySize=auto;html=1;" edge="1" parent="1" source="Dj5zvvuKGpMR83KZicQ8-476" target="Dj5zvvuKGpMR83KZicQ8-482">
          <mxGeometry relative="1" as="geometry" />
        </mxCell>
        <mxCell id="Dj5zvvuKGpMR83KZicQ8-476" value="menu == 1" style="rhombus;whiteSpace=wrap;html=1;" vertex="1" parent="1">
          <mxGeometry x="1313" y="2937" width="80" height="80" as="geometry" />
        </mxCell>
        <mxCell id="Dj5zvvuKGpMR83KZicQ8-478" value="tampil_rekomendasi" style="shape=process;whiteSpace=wrap;html=1;backgroundOutline=1;fillColor=#99FFFF;" vertex="1" parent="1">
          <mxGeometry x="1283" y="3074" width="140" height="60" as="geometry" />
        </mxCell>
        <mxCell id="Dj5zvvuKGpMR83KZicQ8-480" value="Ya" style="text;html=1;whiteSpace=wrap;strokeColor=none;fillColor=none;align=center;verticalAlign=middle;rounded=0;" vertex="1" parent="1">
          <mxGeometry x="1333" y="2687" width="60" height="30" as="geometry" />
        </mxCell>
        <mxCell id="Dj5zvvuKGpMR83KZicQ8-481" value="Ya" style="text;html=1;whiteSpace=wrap;strokeColor=none;fillColor=none;align=center;verticalAlign=middle;rounded=0;" vertex="1" parent="1">
          <mxGeometry x="1336.5" y="3022" width="60" height="30" as="geometry" />
        </mxCell>
        <mxCell id="Dj5zvvuKGpMR83KZicQ8-485" value="" style="edgeStyle=orthogonalEdgeStyle;rounded=0;orthogonalLoop=1;jettySize=auto;html=1;" edge="1" parent="1" source="Dj5zvvuKGpMR83KZicQ8-482" target="Dj5zvvuKGpMR83KZicQ8-484">
          <mxGeometry relative="1" as="geometry" />
        </mxCell>
        <mxCell id="Dj5zvvuKGpMR83KZicQ8-487" value="" style="edgeStyle=orthogonalEdgeStyle;rounded=0;orthogonalLoop=1;jettySize=auto;html=1;" edge="1" parent="1" source="Dj5zvvuKGpMR83KZicQ8-482" target="Dj5zvvuKGpMR83KZicQ8-486">
          <mxGeometry relative="1" as="geometry" />
        </mxCell>
        <mxCell id="Dj5zvvuKGpMR83KZicQ8-482" value="menu == 2&amp;nbsp;&lt;div&gt;dan status&lt;span style=&quot;background-color: transparent; color: light-dark(rgb(0, 0, 0), rgb(255, 255, 255));&quot;&gt;&amp;nbsp;==&amp;nbsp;&lt;/span&gt;&lt;div&gt;&lt;span style=&quot;background-color: transparent; color: light-dark(rgb(0, 0, 0), rgb(255, 255, 255));&quot;&gt;admin&lt;/span&gt;&lt;/div&gt;&lt;/div&gt;" style="rhombus;whiteSpace=wrap;html=1;" vertex="1" parent="1">
          <mxGeometry x="1101.5" y="2930.5" width="101.5" height="93" as="geometry" />
        </mxCell>
        <mxCell id="Dj5zvvuKGpMR83KZicQ8-484" value="update_rekomendasi" style="shape=process;whiteSpace=wrap;html=1;backgroundOutline=1;fillColor=#99FFCC;" vertex="1" parent="1">
          <mxGeometry x="1077.25" y="3073" width="150" height="60" as="geometry" />
        </mxCell>
        <mxCell id="Dj5zvvuKGpMR83KZicQ8-489" value="" style="edgeStyle=orthogonalEdgeStyle;rounded=0;orthogonalLoop=1;jettySize=auto;html=1;" edge="1" parent="1" source="Dj5zvvuKGpMR83KZicQ8-486" target="Dj5zvvuKGpMR83KZicQ8-488">
          <mxGeometry relative="1" as="geometry" />
        </mxCell>
        <mxCell id="Dj5zvvuKGpMR83KZicQ8-494" value="" style="edgeStyle=orthogonalEdgeStyle;rounded=0;orthogonalLoop=1;jettySize=auto;html=1;" edge="1" parent="1" source="Dj5zvvuKGpMR83KZicQ8-486">
          <mxGeometry relative="1" as="geometry">
            <mxPoint x="843.0000000000009" y="2977" as="targetPoint" />
          </mxGeometry>
        </mxCell>
        <mxCell id="Dj5zvvuKGpMR83KZicQ8-486" value="menu == 3&amp;nbsp;&lt;div&gt;dan status&lt;span style=&quot;background-color: transparent; color: light-dark(rgb(0, 0, 0), rgb(255, 255, 255));&quot;&gt;&amp;nbsp;==&amp;nbsp;&lt;/span&gt;&lt;div&gt;&lt;span style=&quot;background-color: transparent; color: light-dark(rgb(0, 0, 0), rgb(255, 255, 255));&quot;&gt;admin&lt;/span&gt;&lt;/div&gt;&lt;/div&gt;" style="rhombus;whiteSpace=wrap;html=1;" vertex="1" parent="1">
          <mxGeometry x="921.5" y="2930.5" width="101.5" height="93" as="geometry" />
        </mxCell>
        <mxCell id="Dj5zvvuKGpMR83KZicQ8-488" value="kelola_model_&lt;div&gt;statistik&lt;/div&gt;" style="shape=process;whiteSpace=wrap;html=1;backgroundOutline=1;fillColor=#99FF99;" vertex="1" parent="1">
          <mxGeometry x="909.75" y="3072" width="125" height="60" as="geometry" />
        </mxCell>
        <mxCell id="Dj5zvvuKGpMR83KZicQ8-490" value="Ya" style="text;html=1;whiteSpace=wrap;strokeColor=none;fillColor=none;align=center;verticalAlign=middle;rounded=0;" vertex="1" parent="1">
          <mxGeometry x="1141.5" y="3027" width="60" height="30" as="geometry" />
        </mxCell>
        <mxCell id="Dj5zvvuKGpMR83KZicQ8-491" value="Ya" style="text;html=1;whiteSpace=wrap;strokeColor=none;fillColor=none;align=center;verticalAlign=middle;rounded=0;" vertex="1" parent="1">
          <mxGeometry x="961.5" y="3027" width="60" height="30" as="geometry" />
        </mxCell>
        <mxCell id="Dj5zvvuKGpMR83KZicQ8-495" value="" style="edgeStyle=orthogonalEdgeStyle;rounded=0;orthogonalLoop=1;jettySize=auto;html=1;" edge="1" parent="1" source="Dj5zvvuKGpMR83KZicQ8-496" target="Dj5zvvuKGpMR83KZicQ8-498">
          <mxGeometry relative="1" as="geometry" />
        </mxCell>
        <mxCell id="Dj5zvvuKGpMR83KZicQ8-511" value="" style="edgeStyle=orthogonalEdgeStyle;rounded=0;orthogonalLoop=1;jettySize=auto;html=1;" edge="1" parent="1" source="Dj5zvvuKGpMR83KZicQ8-496" target="Dj5zvvuKGpMR83KZicQ8-510">
          <mxGeometry relative="1" as="geometry" />
        </mxCell>
        <mxCell id="Dj5zvvuKGpMR83KZicQ8-496" value="&lt;div style=&quot;&quot;&gt;&lt;font&gt;&lt;span style=&quot;background-color: transparent; color: light-dark(rgb(0, 0, 0), rgb(255, 255, 255));&quot;&gt;(status == admin&amp;nbsp;&lt;/span&gt;&lt;/font&gt;&lt;/div&gt;&lt;div style=&quot;&quot;&gt;&lt;font&gt;&lt;span style=&quot;background-color: transparent; color: light-dark(rgb(0, 0, 0), rgb(255, 255, 255));&quot;&gt;dan menu == 4) atau&lt;/span&gt;&lt;span style=&quot;background-color: transparent; color: light-dark(rgb(0, 0, 0), rgb(255, 255, 255));&quot;&gt;&amp;nbsp;&lt;/span&gt;&lt;/font&gt;&lt;/div&gt;&lt;div style=&quot;&quot;&gt;&lt;font&gt;&lt;span style=&quot;background-color: transparent; color: light-dark(rgb(0, 0, 0), rgb(255, 255, 255));&quot;&gt;(status == user&amp;nbsp;&lt;/span&gt;&lt;/font&gt;&lt;/div&gt;&lt;div style=&quot;&quot;&gt;&lt;font&gt;&lt;span style=&quot;background-color: transparent; color: light-dark(rgb(0, 0, 0), rgb(255, 255, 255));&quot;&gt;dan menu == 2)&lt;/span&gt;&lt;/font&gt;&lt;/div&gt;" style="rhombus;whiteSpace=wrap;html=1;" vertex="1" parent="1">
          <mxGeometry x="683.5" y="2907" width="160" height="140" as="geometry" />
        </mxCell>
        <mxCell id="Dj5zvvuKGpMR83KZicQ8-509" style="edgeStyle=orthogonalEdgeStyle;rounded=0;orthogonalLoop=1;jettySize=auto;html=1;entryX=0;entryY=0.5;entryDx=0;entryDy=0;" edge="1" parent="1" source="Dj5zvvuKGpMR83KZicQ8-498" target="Dj5zvvuKGpMR83KZicQ8-507">
          <mxGeometry relative="1" as="geometry">
            <Array as="points">
              <mxPoint x="763.5" y="3242" />
            </Array>
          </mxGeometry>
        </mxCell>
        <mxCell id="Dj5zvvuKGpMR83KZicQ8-498" value="output:&lt;div&gt;terima kasih &amp;amp;&lt;/div&gt;&lt;div&gt;sampai jumpa&lt;/div&gt;" style="shape=parallelogram;perimeter=parallelogramPerimeter;whiteSpace=wrap;html=1;fixedSize=1;" vertex="1" parent="1">
          <mxGeometry x="703.5" y="3110" width="120" height="60" as="geometry" />
        </mxCell>
        <mxCell id="Dj5zvvuKGpMR83KZicQ8-499" value="Ya" style="text;html=1;whiteSpace=wrap;strokeColor=none;fillColor=none;align=center;verticalAlign=middle;rounded=0;" vertex="1" parent="1">
          <mxGeometry x="743.5" y="3057" width="60" height="30" as="geometry" />
        </mxCell>
        <mxCell id="Dj5zvvuKGpMR83KZicQ8-507" value="end" style="ellipse;whiteSpace=wrap;html=1;" vertex="1" parent="1">
          <mxGeometry x="1293" y="3217" width="120" height="50" as="geometry" />
        </mxCell>
        <mxCell id="Dj5zvvuKGpMR83KZicQ8-512" style="edgeStyle=orthogonalEdgeStyle;rounded=0;orthogonalLoop=1;jettySize=auto;html=1;exitX=1;exitY=1;exitDx=0;exitDy=0;" edge="1" parent="1" source="Dj5zvvuKGpMR83KZicQ8-510">
          <mxGeometry relative="1" as="geometry">
            <mxPoint x="641.5" y="2998.5" as="targetPoint" />
          </mxGeometry>
        </mxCell>
        <mxCell id="Dj5zvvuKGpMR83KZicQ8-513" style="edgeStyle=orthogonalEdgeStyle;rounded=0;orthogonalLoop=1;jettySize=auto;html=1;entryX=0;entryY=0.5;entryDx=0;entryDy=0;" edge="1" parent="1" source="Dj5zvvuKGpMR83KZicQ8-510" target="Dj5zvvuKGpMR83KZicQ8-474">
          <mxGeometry relative="1" as="geometry">
            <Array as="points">
              <mxPoint x="571.5" y="2858" />
            </Array>
          </mxGeometry>
        </mxCell>
        <mxCell id="Dj5zvvuKGpMR83KZicQ8-510" value="output:&lt;div&gt;pilihan tidak valid&lt;/div&gt;" style="shape=parallelogram;perimeter=parallelogramPerimeter;whiteSpace=wrap;html=1;fixedSize=1;" vertex="1" parent="1">
          <mxGeometry x="511.5" y="2947" width="120" height="60" as="geometry" />
        </mxCell>
        <mxCell id="Dj5zvvuKGpMR83KZicQ8-517" value="" style="edgeStyle=orthogonalEdgeStyle;rounded=0;orthogonalLoop=1;jettySize=auto;html=1;" edge="1" parent="1" source="Dj5zvvuKGpMR83KZicQ8-514" target="Dj5zvvuKGpMR83KZicQ8-516">
          <mxGeometry relative="1" as="geometry" />
        </mxCell>
        <mxCell id="Dj5zvvuKGpMR83KZicQ8-519" value="" style="edgeStyle=orthogonalEdgeStyle;rounded=0;orthogonalLoop=1;jettySize=auto;html=1;" edge="1" parent="1" source="Dj5zvvuKGpMR83KZicQ8-514" target="Dj5zvvuKGpMR83KZicQ8-518">
          <mxGeometry relative="1" as="geometry" />
        </mxCell>
        <mxCell id="Dj5zvvuKGpMR83KZicQ8-514" value="pilih == 2" style="rhombus;whiteSpace=wrap;html=1;" vertex="1" parent="1">
          <mxGeometry x="1143" y="2601.5" width="80" height="80" as="geometry" />
        </mxCell>
        <mxCell id="Dj5zvvuKGpMR83KZicQ8-516" value="register" style="shape=process;whiteSpace=wrap;html=1;backgroundOutline=1;fillColor=#FFFF99;" vertex="1" parent="1">
          <mxGeometry x="1123" y="2727" width="120" height="60" as="geometry" />
        </mxCell>
        <mxCell id="Dj5zvvuKGpMR83KZicQ8-521" value="" style="edgeStyle=orthogonalEdgeStyle;rounded=0;orthogonalLoop=1;jettySize=auto;html=1;" edge="1" parent="1" source="Dj5zvvuKGpMR83KZicQ8-518" target="Dj5zvvuKGpMR83KZicQ8-520">
          <mxGeometry relative="1" as="geometry" />
        </mxCell>
        <mxCell id="Dj5zvvuKGpMR83KZicQ8-525" value="" style="edgeStyle=orthogonalEdgeStyle;rounded=0;orthogonalLoop=1;jettySize=auto;html=1;" edge="1" parent="1" source="Dj5zvvuKGpMR83KZicQ8-518" target="Dj5zvvuKGpMR83KZicQ8-524">
          <mxGeometry relative="1" as="geometry" />
        </mxCell>
        <mxCell id="Dj5zvvuKGpMR83KZicQ8-518" value="pilih == 3" style="rhombus;whiteSpace=wrap;html=1;" vertex="1" parent="1">
          <mxGeometry x="971.5" y="2601.5" width="80" height="80" as="geometry" />
        </mxCell>
        <mxCell id="Dj5zvvuKGpMR83KZicQ8-520" value="menu keluar" style="ellipse;whiteSpace=wrap;html=1;aspect=fixed;" vertex="1" parent="1">
          <mxGeometry x="981.5" y="2727" width="60" height="60" as="geometry" />
        </mxCell>
        <mxCell id="Dj5zvvuKGpMR83KZicQ8-523" value="" style="edgeStyle=orthogonalEdgeStyle;rounded=0;orthogonalLoop=1;jettySize=auto;html=1;" edge="1" parent="1" source="Dj5zvvuKGpMR83KZicQ8-522" target="Dj5zvvuKGpMR83KZicQ8-507">
          <mxGeometry relative="1" as="geometry" />
        </mxCell>
        <mxCell id="Dj5zvvuKGpMR83KZicQ8-522" value="menu keluar" style="ellipse;whiteSpace=wrap;html=1;aspect=fixed;" vertex="1" parent="1">
          <mxGeometry x="1491.5" y="3212" width="60" height="60" as="geometry" />
        </mxCell>
        <mxCell id="Dj5zvvuKGpMR83KZicQ8-526" style="edgeStyle=orthogonalEdgeStyle;rounded=0;orthogonalLoop=1;jettySize=auto;html=1;exitX=1;exitY=1;exitDx=0;exitDy=0;" edge="1" parent="1" source="Dj5zvvuKGpMR83KZicQ8-524">
          <mxGeometry relative="1" as="geometry">
            <mxPoint x="921.5" y="2662.666666666667" as="targetPoint" />
          </mxGeometry>
        </mxCell>
        <mxCell id="Dj5zvvuKGpMR83KZicQ8-527" style="edgeStyle=orthogonalEdgeStyle;rounded=0;orthogonalLoop=1;jettySize=auto;html=1;entryX=0;entryY=0.5;entryDx=0;entryDy=0;" edge="1" parent="1" source="Dj5zvvuKGpMR83KZicQ8-524" target="Dj5zvvuKGpMR83KZicQ8-466">
          <mxGeometry relative="1" as="geometry">
            <Array as="points">
              <mxPoint x="851.5" y="2510" />
              <mxPoint x="1102.5" y="2510" />
            </Array>
          </mxGeometry>
        </mxCell>
        <mxCell id="Dj5zvvuKGpMR83KZicQ8-524" value="output:&lt;div&gt;pilihan tidak valid&lt;/div&gt;" style="shape=parallelogram;perimeter=parallelogramPerimeter;whiteSpace=wrap;html=1;fixedSize=1;" vertex="1" parent="1">
          <mxGeometry x="791.5" y="2611.5" width="120" height="60" as="geometry" />
        </mxCell>
      </root>
    </mxGraphModel>
  </diagram>
  <diagram id="MU4AO9kuYtshcEmo7H_S" name="Halaman-2">
    <mxGraphModel dx="1042" dy="527" grid="1" gridSize="10" guides="1" tooltips="1" connect="1" arrows="1" fold="1" page="1" pageScale="1" pageWidth="827" pageHeight="1169" math="0" shadow="0">
      <root>
        <mxCell id="0" />
        <mxCell id="1" parent="0" />
      </root>
    </mxGraphModel>
  </diagram>
</mxfile>
